# PCF Mesh Export
# vertexCount=42  triCount=24
# materialID=c93950f7

v -5e-06 0 0.349996
v 0.3 0 -5e-06
v 0.1 0 -5e-06
v 0.1 0 -0.25
v -0.1 0 -0.25
v -0.1 0 -5e-06
v -0.3 0 -5e-06
v -5e-06 0.006955 0.349996
v 0.3 0.006955 -5e-06
v 0.1 0.006955 -5e-06
v 0.1 0.006955 -0.25
v -0.1 0.006955 -0.25
v -0.1 0.006955 -5e-06
v -0.3 0.006955 -5e-06
v -5e-06 0 0.349996
v 0.3 0 -5e-06
v 0.3 0.006955 -5e-06
v -5e-06 0.006955 0.349996
v 0.3 0 -5e-06
v 0.1 0 -5e-06
v 0.1 0.006955 -5e-06
v 0.3 0.006955 -5e-06
v 0.1 0 -5e-06
v 0.1 0 -0.25
v 0.1 0.006955 -0.25
v 0.1 0.006955 -5e-06
v 0.1 0 -0.25
v -0.1 0 -0.25
v -0.1 0.006955 -0.25
v 0.1 0.006955 -0.25
v -0.1 0 -0.25
v -0.1 0 -5e-06
v -0.1 0.006955 -5e-06
v -0.1 0.006955 -0.25
v -0.1 0 -5e-06
v -0.3 0 -5e-06
v -0.3 0.006955 -5e-06
v -0.1 0.006955 -5e-06
v -0.3 0 -5e-06
v -5e-06 0 0.349996
v -5e-06 0.006955 0.349996
v -0.3 0.006955 -5e-06

vn 0 -1 0
vn 0 -1 0
vn 0 -1 0
vn 0 -1 0
vn 0 -1 0
vn 0 -1 0
vn 0 -1 0
vn 0 1 0
vn 0 1 0
vn 0 1 0
vn 0 1 0
vn 0 1 0
vn 0 1 0
vn 0 1 0
vn 0.755906 0 0.645669
vn 0.755906 0 0.645669
vn 0.755906 0 0.645669
vn 0.755906 0 0.645669
vn 0 0 -1
vn 0 0 -1
vn 0 0 -1
vn 0 0 -1
vn 1 0 0
vn 1 0 0
vn 1 0 0
vn 1 0 0
vn 0 0 -1
vn 0 0 -1
vn 0 0 -1
vn 0 0 -1
vn -1 0 0
vn -1 0 0
vn -1 0 0
vn -1 0 0
vn 0 0 -1
vn 0 0 -1
vn 0 0 -1
vn 0 0 -1
vn -0.76378 0 0.645669
vn -0.76378 0 0.645669
vn -0.76378 0 0.645669
vn -0.76378 0 0.645669

vt -7e-06 -2e-06
vt 0.806444 -2e-06
vt 0.612889 0.25806
vt 1 0.548378
vt 0.806444 0.806452
vt 0.419348 0.516121
vt 0.225793 0.774183
vt -7e-06 -2e-06
vt 0.806444 -2e-06
vt 0.612889 0.25806
vt 1 0.548378
vt 0.806444 0.806452
vt 0.419348 0.516121
vt 0.225793 0.774183
vt -7e-06 -2e-06
vt 0.806444 -2e-06
vt 0.806444 -2e-06
vt -7e-06 -2e-06
vt 0.806444 -2e-06
vt 0.612889 0.25806
vt 0.612889 0.25806
vt 0.806444 -2e-06
vt 0.612889 0.25806
vt 1 0.548378
vt 1 0.548378
vt 0.612889 0.25806
vt 1 0.548378
vt 0.806444 0.806452
vt 0.806444 0.806452
vt 1 0.548378
vt 0.806444 0.806452
vt 0.419348 0.516121
vt 0.419348 0.516121
vt 0.806444 0.806452
vt 0.419348 0.516121
vt 0.225793 0.774183
vt 0.225793 0.774183
vt 0.419348 0.516121
vt 0.225793 0.774183
vt -7e-06 -2e-06
vt -7e-06 -2e-06
vt 0.225793 0.774183

f 8/8/8 9/9/9 10/10/10
f 10/10/10 13/13/13 8/8/8
f 13/13/13 14/14/14 8/8/8
f 12/12/12 13/13/13 10/10/10
f 10/10/10 11/11/11 12/12/12
f 1/1/1 7/7/7 6/6/6
f 6/6/6 3/3/3 1/1/1
f 3/3/3 2/2/2 1/1/1
f 4/4/4 3/3/3 6/6/6
f 6/6/6 5/5/5 4/4/4
f 15/15/15 16/16/16 17/17/17
f 15/15/15 17/17/17 18/18/18
f 19/19/19 20/20/20 21/21/21
f 19/19/19 21/21/21 22/22/22
f 23/23/23 24/24/24 25/25/25
f 23/23/23 25/25/25 26/26/26
f 27/27/27 28/28/28 29/29/29
f 27/27/27 29/29/29 30/30/30
f 31/31/31 32/32/32 33/33/33
f 31/31/31 33/33/33 34/34/34
f 35/35/35 36/36/36 37/37/37
f 35/35/35 37/37/37 38/38/38
f 39/39/39 40/40/40 41/41/41
f 39/39/39 41/41/41 42/42/42
