# PCF Mesh Export
# vertexCount=145  triCount=272
# materialID=ba89e8f3

v 0.020458 0.008471 0
v 0.020064 0.008311 0.00432
v 0.015357 0.015352 0.00432
v 0.015658 0.015656 0
v 0.008311 0.020065 0.00432
v 0.008474 0.020457 0
v 0 0.021714 0.004319
v 0 0.022144 0
v -0.008311 0.020064 0.00432
v -0.008473 0.020455 0
v -0.015356 0.015352 0.00432
v -0.015657 0.015658 0
v -0.020064 0.00831 0.00432
v -0.020457 0.008476 0
v -0.021717 -4e-06 0.004319
v -0.022143 -1e-06 0
v -0.020064 -0.008309 0.00432
v -0.020457 -0.008477 0
v -0.015356 -0.015358 0.00432
v -0.015657 -0.015659 0
v -0.008311 -0.020065 0.00432
v -0.008474 -0.020459 0
v 0 -0.021719 0.00432
v 0 -0.022144 0
v 0.008311 -0.020065 0.00432
v 0.008474 -0.020456 0
v 0.015357 -0.015358 0.00432
v 0.015658 -0.015658 0
v 0.020064 -0.008315 0.00432
v 0.020458 -0.008475 0
v 0.021718 -1e-06 0.00432
v 0.022143 -1e-06 0
v -0.007828 -0.018902 0.008473
v 0 -0.020459 0.008473
v 0.007829 -0.018903 0.008474
v 0.014466 -0.014466 0.008474
v 0.018901 -0.007833 0.008474
v 0.020458 -1e-06 0.008474
v 0.018901 0.00783 0.008474
v 0.014466 0.014467 0.008473
v 0.007829 0.018898 0.008474
v 0 0.020458 0.008473
v -0.007828 0.018899 0.008473
v -0.014465 0.014467 0.008473
v -0.0189 0.007829 0.008473
v -0.020457 -2e-06 0.008473
v -0.0189 -0.007828 0.008474
v -0.014465 -0.014468 0.008473
v -0.007045 0.017005 0.012302
v 0 0.018411 0.012301
v -0.013018 0.013015 0.012302
v -0.017009 0.007044 0.012302
v -0.018411 0 0.012302
v -0.017009 -0.00705 0.012301
v -0.013018 -0.013022 0.012302
v -0.007045 -0.017014 0.012301
v 0 -0.018414 0.012302
v 0.007046 -0.017008 0.012301
v 0.013019 -0.01302 0.012301
v 0.01701 -0.007046 0.012301
v 0.018411 -1e-06 0.012301
v 0.01701 0.007043 0.012301
v 0.013019 0.013018 0.012301
v 0.007046 0.017007 0.012301
v 0.011072 0.011068 0.015657
v 0.014466 0.005989 0.015657
v 0.005992 0.014464 0.015657
v 0 0.015659 0.015657
v -0.005992 0.014464 0.015657
v -0.011071 0.011069 0.015657
v -0.014465 0.005989 0.015657
v -0.015657 2e-06 0.015657
v -0.014465 -0.005996 0.015657
v -0.011071 -0.011074 0.015657
v -0.005992 -0.014465 0.015657
v 0 -0.015656 0.015657
v 0.005992 -0.014466 0.015657
v 0.011072 -0.011071 0.015657
v 0.014466 -0.005992 0.015657
v 0.015658 -1e-06 0.015657
v -0.004708 -0.011368 0.018411
v -0.008699 -0.008698 0.018411
v 0 -0.012303 0.018411
v 0.004708 -0.011364 0.018411
v 0.008699 -0.008702 0.018411
v 0.011366 -0.004707 0.018411
v 0.012302 -1e-06 0.018411
v 0.011366 0.004704 0.018411
v 0.008699 0.008699 0.018411
v 0.004708 0.011365 0.018411
v 0 0.012297 0.018411
v -0.004708 0.011362 0.018411
v -0.008699 0.008696 0.018411
v -0.011365 0.004709 0.018411
v -0.012302 -4e-06 0.018411
v -0.011365 -0.004708 0.018411
v 0 0.008471 0.020457
v -0.003243 0.007829 0.020457
v -0.005992 0.005989 0.020457
v -0.007828 0.003243 0.020457
v -0.008474 0 0.020457
v -0.007828 -0.003245 0.020457
v -0.005992 -0.005992 0.020457
v -0.003243 -0.007831 0.020457
v 0 -0.008475 0.020457
v 0.003243 -0.007833 0.020457
v 0.005992 -0.005992 0.020457
v 0.007829 -0.003246 0.020457
v 0.008474 -1e-06 0.020457
v 0.007829 0.003243 0.020457
v 0.005992 0.005989 0.020457
v 0.003243 0.00783 0.020457
v 0.003055 0.003055 0.021717
v 0.003991 0.001654 0.021717
v 0.001653 0.003988 0.021717
v 0 0.004317 0.021717
v -0.001653 0.003988 0.021717
v -0.003054 0.003054 0.021717
v -0.003991 0.001653 0.021717
v -0.00432 0 0.021717
v -0.003991 -0.001653 0.021717
v -0.003054 -0.003056 0.021717
v -0.001653 -0.00399 0.021717
v 0 -0.004319 0.021717
v 0.001653 -0.00399 0.021717
v 0.003055 -0.003057 0.021717
v 0.003991 -0.001651 0.021717
v 0.00432 -1e-06 0.021717
v 0 -1e-06 0.022142
v 0.015204 0.015202 -0.004537
v 0.019864 0.008225 -0.004537
v 0.008228 0.019865 -0.004537
v 0 0.021502 -0.004537
v -0.008228 0.019862 -0.004537
v -0.015204 0.015204 -0.004537
v -0.019865 0.00823 -0.004537
v -0.021501 -1e-06 -0.004537
v -0.019864 -0.008231 -0.004537
v -0.015204 -0.015205 -0.004537
v -0.008228 -0.019867 -0.004537
v 0 -0.021502 -0.004537
v 0.008228 -0.019862 -0.004537
v 0.015202 -0.015202 -0.004537
v 0.019864 -0.008228 -0.004537
v 0.0215 -1e-06 -0.004537

vn 0.92126 0.377953 0.094488
vn 0.913386 0.370079 0.188976
vn 0.700787 0.692913 0.188976
vn 0.708661 0.700787 0.094488
vn 0.377953 0.905512 0.188976
vn 0.385827 0.913386 0.094488
vn 0 0.976378 0.188976
vn 0 0.992126 0.094488
vn -0.370079 0.905512 0.188976
vn -0.377953 0.913386 0.094488
vn -0.692913 0.692913 0.188976
vn -0.700787 0.700787 0.094488
vn -0.905512 0.370079 0.188976
vn -0.913386 0.377953 0.094488
vn -0.976378 -0.007874 0.188976
vn -0.992126 0 0.094488
vn -0.905512 -0.377953 0.188976
vn -0.913386 -0.385827 0.094488
vn -0.692913 -0.700787 0.188976
vn -0.700787 -0.708661 0.094488
vn -0.370079 -0.913386 0.188976
vn -0.377953 -0.92126 0.094488
vn 0.007874 -0.984252 0.188976
vn 0.007874 -1 0.094488
vn 0.377953 -0.913386 0.188976
vn 0.385827 -0.92126 0.094488
vn 0.700787 -0.700787 0.188976
vn 0.708661 -0.708661 0.094488
vn 0.913386 -0.377953 0.188976
vn 0.92126 -0.385827 0.094488
vn 0.984252 0 0.188976
vn 1 0 0.094488
vn -0.354331 -0.858268 0.370079
vn 0.007874 -0.929134 0.370079
vn 0.362205 -0.858268 0.370079
vn 0.661417 -0.661417 0.370079
vn 0.858268 -0.362205 0.370079
vn 0.929134 -0.007874 0.370079
vn 0.858268 0.354331 0.370079
vn 0.661417 0.653543 0.370079
vn 0.362205 0.850394 0.370079
vn 0 0.92126 0.370079
vn -0.354331 0.850394 0.370079
vn -0.653543 0.653543 0.370079
vn -0.850394 0.354331 0.370079
vn -0.92126 0 0.370079
vn -0.850394 -0.362205 0.370079
vn -0.653543 -0.661417 0.370079
vn -0.314961 0.771654 0.543307
vn 0 0.834646 0.543307
vn -0.590551 0.590551 0.543307
vn -0.771654 0.314961 0.543307
vn -0.834646 0 0.543307
vn -0.771654 -0.322835 0.543307
vn -0.590551 -0.598425 0.543307
vn -0.314961 -0.779528 0.543307
vn 0.007874 -0.84252 0.543307
vn 0.322835 -0.779528 0.543307
vn 0.598425 -0.598425 0.543307
vn 0.779528 -0.322835 0.543307
vn 0.84252 -0.007874 0.543307
vn 0.779528 0.314961 0.543307
vn 0.598425 0.590551 0.543307
vn 0.322835 0.771654 0.543307
vn 0.511811 0.503937 0.692913
vn 0.669291 0.267717 0.692913
vn 0.275591 0.661417 0.692913
vn 0 0.716535 0.692913
vn -0.275591 0.661417 0.692913
vn -0.503937 0.503937 0.692913
vn -0.661417 0.267717 0.692913
vn -0.716535 0 0.692913
vn -0.661417 -0.275591 0.692913
vn -0.503937 -0.511811 0.692913
vn -0.267717 -0.669291 0.692913
vn 0.007874 -0.724409 0.692913
vn 0.275591 -0.669291 0.692913
vn 0.511811 -0.511811 0.692913
vn 0.669291 -0.275591 0.692913
vn 0.724409 -0.007874 0.692913
vn -0.212598 -0.535433 0.811024
vn -0.401575 -0.409449 0.811024
vn 0.007874 -0.582677 0.811024
vn 0.220472 -0.535433 0.811024
vn 0.409449 -0.409449 0.811024
vn 0.535433 -0.220472 0.811024
vn 0.582677 -0.007874 0.811024
vn 0.535433 0.212598 0.811024
vn 0.409449 0.401575 0.811024
vn 0.220472 0.527559 0.811024
vn 0 0.574803 0.811024
vn -0.212598 0.527559 0.811024
vn -0.401575 0.401575 0.811024
vn -0.527559 0.212598 0.811024
vn -0.574803 -0.007874 0.811024
vn -0.527559 -0.220472 0.811024
vn 0 0.409449 0.905512
vn -0.15748 0.377953 0.905512
vn -0.291339 0.291339 0.905512
vn -0.377953 0.15748 0.905512
vn -0.409449 0 0.905512
vn -0.377953 -0.165354 0.905512
vn -0.291339 -0.299213 0.905512
vn -0.15748 -0.385827 0.905512
vn 0.007874 -0.417323 0.905512
vn 0.165354 -0.385827 0.905512
vn 0.299213 -0.299213 0.905512
vn 0.385827 -0.165354 0.905512
vn 0.417323 -0.007874 0.905512
vn 0.385827 0.15748 0.905512
vn 0.299213 0.291339 0.905512
vn 0.165354 0.377953 0.905512
vn 0.181102 0.173228 0.96063
vn 0.23622 0.094488 0.96063
vn 0.102362 0.228346 0.96063
vn 0 0.244094 0.96063
vn -0.094488 0.228346 0.96063
vn -0.173228 0.173228 0.96063
vn -0.228346 0.094488 0.96063
vn -0.244094 0 0.96063
vn -0.228346 -0.102362 0.96063
vn -0.173228 -0.181102 0.96063
vn -0.094488 -0.23622 0.96063
vn 0 -0.251969 0.96063
vn 0.102362 -0.23622 0.96063
vn 0.181102 -0.181102 0.96063
vn 0.23622 -0.102362 0.96063
vn 0.251969 -0.007874 0.96063
vn 0 -0.007874 1
vn 0.700787 0.692913 -0.141732
vn 0.92126 0.377953 -0.141732
vn 0.385827 0.913386 -0.141732
vn 0 0.984252 -0.141732
vn -0.377953 0.913386 -0.141732
vn -0.692913 0.692913 -0.141732
vn -0.913386 0.377953 -0.141732
vn -0.984252 -0.007874 -0.141732
vn -0.913386 -0.385827 -0.141732
vn -0.692913 -0.700787 -0.141732
vn -0.377953 -0.92126 -0.141732
vn 0.007874 -0.992126 -0.141732
vn 0.385827 -0.92126 -0.141732
vn 0.700787 -0.700787 -0.141732
vn 0.92126 -0.385827 -0.141732
vn 0.992126 0 -0.141732

vt 0.369983 0.499335
vt 0.362619 0.494702
vt 0.342505 0.514593
vt 0.34719 0.521953
vt 0.316722 0.525389
vt 0.318358 0.533962
vt 0.288406 0.525455
vt 0.28674 0.534011
vt 0.262294 0.514522
vt 0.257552 0.521863
vt 0.24258 0.494702
vt 0.235494 0.499812
vt 0.23168 0.468711
vt 0.223116 0.470422
vt 0.231375 0.440406
vt 0.222822 0.439027
vt 0.242231 0.414014
vt 0.234838 0.409406
vt 0.262112 0.394214
vt 0.256972 0.387118
vt 0.288082 0.383218
vt 0.286386 0.374681
vt 0.316393 0.382949
vt 0.317776 0.374397
vt 0.342807 0.393816
vt 0.347399 0.386418
vt 0.362611 0.413701
vt 0.369705 0.408599
vt 0.373614 0.439801
vt 0.382121 0.438256
vt 0.373669 0.468376
vt 0.382094 0.470005
vt 0.290208 0.39311
vt 0.314675 0.392919
vt 0.337346 0.402367
vt 0.354398 0.419587
vt 0.363727 0.441818
vt 0.363831 0.466408
vt 0.354278 0.489053
vt 0.337134 0.505998
vt 0.314858 0.515399
vt 0.290398 0.515484
vt 0.267856 0.506003
vt 0.250899 0.488795
vt 0.241485 0.466637
vt 0.241338 0.442139
vt 0.250784 0.41947
vt 0.268011 0.402427
vt 0.273363 0.497885
vt 0.292337 0.505823
vt 0.258962 0.483304
vt 0.251076 0.464512
vt 0.250989 0.443946
vt 0.25891 0.424925
vt 0.27352 0.410548
vt 0.292307 0.402653
vt 0.312873 0.402569
vt 0.331874 0.410501
vt 0.346278 0.42508
vt 0.354172 0.443886
vt 0.354246 0.464471
vt 0.346193 0.483407
vt 0.331828 0.497877
vt 0.312911 0.505782
vt 0.326672 0.490195
vt 0.338576 0.478238
vt 0.311066 0.496667
vt 0.29416 0.496673
vt 0.278551 0.49019
vt 0.266609 0.478227
vt 0.260182 0.462621
vt 0.260146 0.445736
vt 0.266603 0.4301
vt 0.278625 0.418235
vt 0.294185 0.411739
vt 0.311076 0.411725
vt 0.326683 0.418202
vt 0.338604 0.430176
vt 0.345083 0.445758
vt 0.345096 0.462648
vt 0.29599 0.420843
vt 0.283702 0.425898
vt 0.309263 0.420854
vt 0.321519 0.425939
vt 0.330894 0.435318
vt 0.335963 0.447584
vt 0.335958 0.460844
vt 0.33087 0.473085
vt 0.321494 0.482475
vt 0.309236 0.487544
vt 0.295976 0.48753
vt 0.283729 0.482448
vt 0.274394 0.473049
vt 0.269228 0.460849
vt 0.269277 0.447557
vt 0.274389 0.435337
vt 0.297982 0.47739
vt 0.289462 0.473856
vt 0.282945 0.467308
vt 0.27939 0.458795
vt 0.279414 0.44957
vt 0.282972 0.441033
vt 0.289486 0.434495
vt 0.298021 0.430975
vt 0.307257 0.430994
vt 0.315789 0.434528
vt 0.322308 0.441076
vt 0.325828 0.449603
vt 0.325815 0.458838
vt 0.32227 0.467362
vt 0.31574 0.473875
vt 0.307208 0.477407
vt 0.30925 0.464223
vt 0.31259 0.46092
vt 0.304927 0.465986
vt 0.300223 0.46597
vt 0.295905 0.464163
vt 0.292598 0.460836
vt 0.290815 0.456497
vt 0.290839 0.451805
vt 0.292663 0.447464
vt 0.295987 0.444158
vt 0.300326 0.442395
vt 0.305006 0.442417
vt 0.30934 0.444243
vt 0.312647 0.447573
vt 0.314422 0.451927
vt 0.314398 0.456606
vt 0.302616 0.454187
vt 0.352596 0.530014
vt 0.378375 0.504316
vt 0.3204 0.543347
vt 0.284916 0.5435
vt 0.252156 0.529855
vt 0.227515 0.505306
vt 0.213547 0.472079
vt 0.213337 0.43746
vt 0.226704 0.404117
vt 0.25143 0.379131
vt 0.284712 0.365116
vt 0.319328 0.364914
vt 0.352672 0.378278
vt 0.3777 0.403065
vt 0.391739 0.436722
vt 0.391505 0.471788

f 1/1/1 3/3/3 2/2/2
f 1/1/1 4/4/4 3/3/3
f 4/4/4 5/5/5 3/3/3
f 4/4/4 6/6/6 5/5/5
f 6/6/6 7/7/7 5/5/5
f 6/6/6 8/8/8 7/7/7
f 8/8/8 9/9/9 7/7/7
f 8/8/8 10/10/10 9/9/9
f 10/10/10 11/11/11 9/9/9
f 10/10/10 12/12/12 11/11/11
f 12/12/12 13/13/13 11/11/11
f 12/12/12 14/14/14 13/13/13
f 14/14/14 15/15/15 13/13/13
f 14/14/14 16/16/16 15/15/15
f 16/16/16 17/17/17 15/15/15
f 16/16/16 18/18/18 17/17/17
f 18/18/18 19/19/19 17/17/17
f 18/18/18 20/20/20 19/19/19
f 20/20/20 21/21/21 19/19/19
f 20/20/20 22/22/22 21/21/21
f 22/22/22 23/23/23 21/21/21
f 22/22/22 24/24/24 23/23/23
f 24/24/24 25/25/25 23/23/23
f 24/24/24 26/26/26 25/25/25
f 26/26/26 27/27/27 25/25/25
f 26/26/26 28/28/28 27/27/27
f 28/28/28 29/29/29 27/27/27
f 28/28/28 30/30/30 29/29/29
f 30/30/30 31/31/31 29/29/29
f 30/30/30 32/32/32 31/31/31
f 32/32/32 2/2/2 31/31/31
f 32/32/32 1/1/1 2/2/2
f 19/19/19 21/21/21 33/33/33
f 21/21/21 34/34/34 33/33/33
f 21/21/21 23/23/23 34/34/34
f 23/23/23 35/35/35 34/34/34
f 23/23/23 25/25/25 35/35/35
f 25/25/25 36/36/36 35/35/35
f 25/25/25 27/27/27 36/36/36
f 27/27/27 37/37/37 36/36/36
f 27/27/27 29/29/29 37/37/37
f 29/29/29 38/38/38 37/37/37
f 29/29/29 31/31/31 38/38/38
f 31/31/31 39/39/39 38/38/38
f 31/31/31 2/2/2 39/39/39
f 2/2/2 40/40/40 39/39/39
f 2/2/2 3/3/3 40/40/40
f 3/3/3 41/41/41 40/40/40
f 3/3/3 5/5/5 41/41/41
f 5/5/5 42/42/42 41/41/41
f 5/5/5 7/7/7 42/42/42
f 7/7/7 43/43/43 42/42/42
f 7/7/7 9/9/9 43/43/43
f 9/9/9 44/44/44 43/43/43
f 9/9/9 11/11/11 44/44/44
f 11/11/11 45/45/45 44/44/44
f 11/11/11 13/13/13 45/45/45
f 13/13/13 46/46/46 45/45/45
f 13/13/13 15/15/15 46/46/46
f 15/15/15 47/47/47 46/46/46
f 15/15/15 17/17/17 47/47/47
f 17/17/17 48/48/48 47/47/47
f 17/17/17 19/19/19 48/48/48
f 19/19/19 33/33/33 48/48/48
f 42/42/42 43/43/43 49/49/49
f 42/42/42 49/49/49 50/50/50
f 43/43/43 51/51/51 49/49/49
f 43/43/43 44/44/44 51/51/51
f 44/44/44 52/52/52 51/51/51
f 44/44/44 45/45/45 52/52/52
f 45/45/45 53/53/53 52/52/52
f 45/45/45 46/46/46 53/53/53
f 46/46/46 54/54/54 53/53/53
f 46/46/46 47/47/47 54/54/54
f 47/47/47 55/55/55 54/54/54
f 47/47/47 48/48/48 55/55/55
f 48/48/48 56/56/56 55/55/55
f 48/48/48 33/33/33 56/56/56
f 33/33/33 57/57/57 56/56/56
f 33/33/33 34/34/34 57/57/57
f 34/34/34 58/58/58 57/57/57
f 34/34/34 35/35/35 58/58/58
f 35/35/35 59/59/59 58/58/58
f 35/35/35 36/36/36 59/59/59
f 36/36/36 60/60/60 59/59/59
f 36/36/36 37/37/37 60/60/60
f 37/37/37 61/61/61 60/60/60
f 37/37/37 38/38/38 61/61/61
f 38/38/38 62/62/62 61/61/61
f 38/38/38 39/39/39 62/62/62
f 39/39/39 63/63/63 62/62/62
f 39/39/39 40/40/40 63/63/63
f 40/40/40 64/64/64 63/63/63
f 40/40/40 41/41/41 64/64/64
f 41/41/41 50/50/50 64/64/64
f 41/41/41 42/42/42 50/50/50
f 62/62/62 63/63/63 65/65/65
f 62/62/62 65/65/65 66/66/66
f 61/61/61 62/62/62 66/66/66
f 63/63/63 67/67/67 65/65/65
f 63/63/63 64/64/64 67/67/67
f 64/64/64 68/68/68 67/67/67
f 64/64/64 50/50/50 68/68/68
f 50/50/50 69/69/69 68/68/68
f 50/50/50 49/49/49 69/69/69
f 49/49/49 70/70/70 69/69/69
f 49/49/49 51/51/51 70/70/70
f 51/51/51 71/71/71 70/70/70
f 51/51/51 52/52/52 71/71/71
f 52/52/52 72/72/72 71/71/71
f 52/52/52 53/53/53 72/72/72
f 53/53/53 73/73/73 72/72/72
f 53/53/53 54/54/54 73/73/73
f 54/54/54 74/74/74 73/73/73
f 54/54/54 55/55/55 74/74/74
f 55/55/55 75/75/75 74/74/74
f 55/55/55 56/56/56 75/75/75
f 56/56/56 76/76/76 75/75/75
f 56/56/56 57/57/57 76/76/76
f 57/57/57 77/77/77 76/76/76
f 57/57/57 58/58/58 77/77/77
f 58/58/58 78/78/78 77/77/77
f 58/58/58 59/59/59 78/78/78
f 59/59/59 79/79/79 78/78/78
f 59/59/59 60/60/60 79/79/79
f 60/60/60 80/80/80 79/79/79
f 60/60/60 61/61/61 80/80/80
f 61/61/61 66/66/66 80/80/80
f 74/74/74 75/75/75 81/81/81
f 74/74/74 81/81/81 82/82/82
f 75/75/75 83/83/83 81/81/81
f 75/75/75 76/76/76 83/83/83
f 76/76/76 84/84/84 83/83/83
f 76/76/76 77/77/77 84/84/84
f 77/77/77 85/85/85 84/84/84
f 77/77/77 78/78/78 85/85/85
f 78/78/78 86/86/86 85/85/85
f 78/78/78 79/79/79 86/86/86
f 79/79/79 87/87/87 86/86/86
f 79/79/79 80/80/80 87/87/87
f 80/80/80 88/88/88 87/87/87
f 80/80/80 66/66/66 88/88/88
f 66/66/66 89/89/89 88/88/88
f 66/66/66 65/65/65 89/89/89
f 65/65/65 90/90/90 89/89/89
f 65/65/65 67/67/67 90/90/90
f 67/67/67 91/91/91 90/90/90
f 67/67/67 68/68/68 91/91/91
f 68/68/68 92/92/92 91/91/91
f 68/68/68 69/69/69 92/92/92
f 69/69/69 93/93/93 92/92/92
f 69/69/69 70/70/70 93/93/93
f 70/70/70 94/94/94 93/93/93
f 70/70/70 71/71/71 94/94/94
f 71/71/71 95/95/95 94/94/94
f 71/71/71 72/72/72 95/95/95
f 72/72/72 96/96/96 95/95/95
f 72/72/72 73/73/73 96/96/96
f 73/73/73 82/82/82 96/96/96
f 73/73/73 74/74/74 82/82/82
f 90/90/90 91/91/91 97/97/97
f 91/91/91 98/98/98 97/97/97
f 91/91/91 92/92/92 98/98/98
f 92/92/92 99/99/99 98/98/98
f 92/92/92 93/93/93 99/99/99
f 93/93/93 100/100/100 99/99/99
f 93/93/93 94/94/94 100/100/100
f 94/94/94 101/101/101 100/100/100
f 94/94/94 95/95/95 101/101/101
f 95/95/95 102/102/102 101/101/101
f 95/95/95 96/96/96 102/102/102
f 96/96/96 103/103/103 102/102/102
f 96/96/96 82/82/82 103/103/103
f 82/82/82 104/104/104 103/103/103
f 82/82/82 81/81/81 104/104/104
f 81/81/81 105/105/105 104/104/104
f 81/81/81 83/83/83 105/105/105
f 83/83/83 106/106/106 105/105/105
f 83/83/83 84/84/84 106/106/106
f 84/84/84 107/107/107 106/106/106
f 84/84/84 85/85/85 107/107/107
f 85/85/85 108/108/108 107/107/107
f 85/85/85 86/86/86 108/108/108
f 86/86/86 109/109/109 108/108/108
f 86/86/86 87/87/87 109/109/109
f 87/87/87 110/110/110 109/109/109
f 87/87/87 88/88/88 110/110/110
f 88/88/88 111/111/111 110/110/110
f 88/88/88 89/89/89 111/111/111
f 89/89/89 112/112/112 111/111/111
f 89/89/89 90/90/90 112/112/112
f 90/90/90 97/97/97 112/112/112
f 110/110/110 111/111/111 113/113/113
f 110/110/110 113/113/113 114/114/114
f 109/109/109 110/110/110 114/114/114
f 111/111/111 115/115/115 113/113/113
f 111/111/111 112/112/112 115/115/115
f 112/112/112 116/116/116 115/115/115
f 112/112/112 97/97/97 116/116/116
f 97/97/97 117/117/117 116/116/116
f 97/97/97 98/98/98 117/117/117
f 98/98/98 118/118/118 117/117/117
f 98/98/98 99/99/99 118/118/118
f 99/99/99 119/119/119 118/118/118
f 99/99/99 100/100/100 119/119/119
f 100/100/100 120/120/120 119/119/119
f 100/100/100 101/101/101 120/120/120
f 101/101/101 121/121/121 120/120/120
f 101/101/101 102/102/102 121/121/121
f 102/102/102 122/122/122 121/121/121
f 102/102/102 103/103/103 122/122/122
f 103/103/103 123/123/123 122/122/122
f 103/103/103 104/104/104 123/123/123
f 104/104/104 124/124/124 123/123/123
f 104/104/104 105/105/105 124/124/124
f 105/105/105 125/125/125 124/124/124
f 105/105/105 106/106/106 125/125/125
f 106/106/106 126/126/126 125/125/125
f 106/106/106 107/107/107 126/126/126
f 107/107/107 127/127/127 126/126/126
f 107/107/107 108/108/108 127/127/127
f 108/108/108 128/128/128 127/127/127
f 108/108/108 109/109/109 128/128/128
f 109/109/109 114/114/114 128/128/128
f 122/122/122 123/123/123 129/129/129
f 123/123/123 124/124/124 129/129/129
f 124/124/124 125/125/125 129/129/129
f 125/125/125 126/126/126 129/129/129
f 126/126/126 127/127/127 129/129/129
f 127/127/127 128/128/128 129/129/129
f 128/128/128 114/114/114 129/129/129
f 114/114/114 113/113/113 129/129/129
f 113/113/113 115/115/115 129/129/129
f 115/115/115 116/116/116 129/129/129
f 116/116/116 117/117/117 129/129/129
f 117/117/117 118/118/118 129/129/129
f 118/118/118 119/119/119 129/129/129
f 119/119/119 120/120/120 129/129/129
f 120/120/120 121/121/121 129/129/129
f 121/121/121 122/122/122 129/129/129
f 4/4/4 131/131/131 130/130/130
f 4/4/4 1/1/1 131/131/131
f 6/6/6 4/4/4 130/130/130
f 6/6/6 130/130/130 132/132/132
f 8/8/8 6/6/6 132/132/132
f 8/8/8 132/132/132 133/133/133
f 10/10/10 8/8/8 133/133/133
f 10/10/10 133/133/133 134/134/134
f 12/12/12 10/10/10 134/134/134
f 12/12/12 134/134/134 135/135/135
f 14/14/14 12/12/12 135/135/135
f 14/14/14 135/135/135 136/136/136
f 16/16/16 14/14/14 136/136/136
f 16/16/16 136/136/136 137/137/137
f 18/18/18 16/16/16 137/137/137
f 18/18/18 137/137/137 138/138/138
f 20/20/20 18/18/18 138/138/138
f 20/20/20 138/138/138 139/139/139
f 22/22/22 20/20/20 139/139/139
f 22/22/22 139/139/139 140/140/140
f 24/24/24 22/22/22 140/140/140
f 24/24/24 140/140/140 141/141/141
f 26/26/26 24/24/24 141/141/141
f 26/26/26 141/141/141 142/142/142
f 28/28/28 26/26/26 142/142/142
f 28/28/28 142/142/142 143/143/143
f 30/30/30 28/28/28 143/143/143
f 30/30/30 143/143/143 144/144/144
f 32/32/32 30/30/30 144/144/144
f 32/32/32 144/144/144 145/145/145
f 1/1/1 32/32/32 145/145/145
f 1/1/1 145/145/145 131/131/131
