# PCF Mesh Export
# vertexCount=42  triCount=24
# materialID=17fddbd6

v 5e-06 0 0.349996
v -0.3 0 -5e-06
v -0.1 0 -5e-06
v -0.1 0 -0.25
v 0.1 0 -0.25
v 0.1 0 -5e-06
v 0.3 0 -5e-06
v 5e-06 0.006955 0.349996
v -0.3 0.006955 -5e-06
v -0.1 0.006955 -5e-06
v -0.1 0.006955 -0.25
v 0.1 0.006955 -0.25
v 0.1 0.006955 -5e-06
v 0.3 0.006955 -5e-06
v 5e-06 0 0.349996
v -0.3 0 -5e-06
v -0.3 0.006955 -5e-06
v 5e-06 0.006955 0.349996
v -0.3 0 -5e-06
v -0.1 0 -5e-06
v -0.1 0.006955 -5e-06
v -0.3 0.006955 -5e-06
v -0.1 0 -5e-06
v -0.1 0 -0.25
v -0.1 0.006955 -0.25
v -0.1 0.006955 -5e-06
v -0.1 0 -0.25
v 0.1 0 -0.25
v 0.1 0.006955 -0.25
v -0.1 0.006955 -0.25
v 0.1 0 -0.25
v 0.1 0 -5e-06
v 0.1 0.006955 -5e-06
v 0.1 0.006955 -0.25
v 0.1 0 -5e-06
v 0.3 0 -5e-06
v 0.3 0.006955 -5e-06
v 0.1 0.006955 -5e-06
v 0.3 0 -5e-06
v 5e-06 0 0.349996
v 5e-06 0.006955 0.349996
v 0.3 0.006955 -5e-06

vn 0 -1 0
vn 0 -1 0
vn 0 -1 0
vn 0 -1 0
vn 0 -1 0
vn 0 -1 0
vn 0 -1 0
vn 0 1 0
vn 0 1 0
vn 0 1 0
vn 0 1 0
vn 0 1 0
vn 0 1 0
vn 0 1 0
vn -0.755906 0 0.645669
vn -0.755906 0 0.645669
vn -0.755906 0 0.645669
vn -0.755906 0 0.645669
vn 0 0 -1
vn 0 0 -1
vn 0 0 -1
vn 0 0 -1
vn -1 0 0
vn -1 0 0
vn -1 0 0
vn -1 0 0
vn 0 0 -1
vn 0 0 -1
vn 0 0 -1
vn 0 0 -1
vn 1 0 0
vn 1 0 0
vn 1 0 0
vn 1 0 0
vn 0 0 -1
vn 0 0 -1
vn 0 0 -1
vn 0 0 -1
vn 0.76378 0 0.645669
vn 0.76378 0 0.645669
vn 0.76378 0 0.645669
vn 0.76378 0 0.645669

vt -7e-06 -2e-06
vt 0.806444 -2e-06
vt 0.612889 0.25806
vt 1 0.548378
vt 0.806444 0.806452
vt 0.419348 0.516121
vt 0.225793 0.774183
vt -7e-06 -2e-06
vt 0.806444 -2e-06
vt 0.612889 0.25806
vt 1 0.548378
vt 0.806444 0.806452
vt 0.419348 0.516121
vt 0.225793 0.774183
vt -7e-06 -2e-06
vt 0.806444 -2e-06
vt 0.806444 -2e-06
vt -7e-06 -2e-06
vt 0.806444 -2e-06
vt 0.612889 0.25806
vt 0.612889 0.25806
vt 0.806444 -2e-06
vt 0.612889 0.25806
vt 1 0.548378
vt 1 0.548378
vt 0.612889 0.25806
vt 1 0.548378
vt 0.806444 0.806452
vt 0.806444 0.806452
vt 1 0.548378
vt 0.806444 0.806452
vt 0.419348 0.516121
vt 0.419348 0.516121
vt 0.806444 0.806452
vt 0.419348 0.516121
vt 0.225793 0.774183
vt 0.225793 0.774183
vt 0.419348 0.516121
vt 0.225793 0.774183
vt -7e-06 -2e-06
vt -7e-06 -2e-06
vt 0.225793 0.774183

f 8/8/8 10/10/10 9/9/9
f 10/10/10 8/8/8 13/13/13
f 13/13/13 8/8/8 14/14/14
f 12/12/12 10/10/10 13/13/13
f 10/10/10 12/12/12 11/11/11
f 1/1/1 6/6/6 7/7/7
f 6/6/6 1/1/1 3/3/3
f 3/3/3 1/1/1 2/2/2
f 4/4/4 6/6/6 3/3/3
f 6/6/6 4/4/4 5/5/5
f 15/15/15 17/17/17 16/16/16
f 15/15/15 18/18/18 17/17/17
f 19/19/19 21/21/21 20/20/20
f 19/19/19 22/22/22 21/21/21
f 23/23/23 25/25/25 24/24/24
f 23/23/23 26/26/26 25/25/25
f 27/27/27 29/29/29 28/28/28
f 27/27/27 30/30/30 29/29/29
f 31/31/31 33/33/33 32/32/32
f 31/31/31 34/34/34 33/33/33
f 35/35/35 37/37/37 36/36/36
f 35/35/35 38/38/38 37/37/37
f 39/39/39 41/41/41 40/40/40
f 39/39/39 42/42/42 41/41/41
