# PCF Mesh Export
# vertexCount=112  triCount=184
# materialID=350c6445

v -0.002861 -0.048503 0.130959
v 1e-06 -0.048437 0.13121
v 1e-06 -0.045595 0.130267
v 1e-06 -0.059767 0.129486
v -0.012269 -0.059709 0.126869
v -0.010711 -0.048233 0.129406
v -0.014761 -0.048364 0.127948
v -0.012659 -0.046479 0.127966
v -0.02448 -0.047705 0.12012
v -0.021997 -0.059806 0.119661
v -0.022049 -0.04786 0.122654
v -0.022428 -0.045686 0.120906
v -0.03482 -0.044394 0.083176
v -0.034085 -0.058178 0.082256
v -0.032558 -0.058984 0.096315
v -0.033867 -0.044781 0.097388
v -0.034287 -0.057484 0.073503
v -0.034121 -0.047348 0.074564
v 1e-06 -0.047947 0.116589
v 1e-06 -0.04993 0.102213
v -0.018226 -0.047949 0.101041
v -0.009834 -0.048047 0.114216
v -0.021895 -0.045731 0.081762
v 1e-06 -0.05099 0.073707
v -0.021112 -0.04675 0.072996
v -0.010422 -0.043794 0.122934
v 1e-06 -0.04374 0.124657
v -0.027975 -0.041208 0.082519
v -0.025407 -0.045488 0.072503
v -0.029278 -0.037131 0.083904
v -0.033452 -0.037149 0.08395
v -0.027254 -0.042486 0.096184
v -0.032553 -0.037948 0.097372
v -0.028142 -0.037931 0.09616
v -0.02421 -0.043559 0.107563
v -0.019248 -0.043805 0.117039
v -0.021218 -0.038683 0.1224
v -0.022037 -0.03958 0.120683
v -0.020111 -0.039568 0.118481
v -0.018909 -0.038665 0.119505
v -0.023157 -0.038589 0.119875
v -0.0213 -0.038577 0.117409
v -0.025218 -0.03816 0.108088
v -0.028034 -0.038175 0.109907
v -0.014002 -0.039058 0.127454
v -0.011889 -0.038944 0.123977
v -0.012191 -0.039839 0.127589
v -0.010761 -0.039833 0.124305
v -0.011275 -0.039158 0.128644
v -0.009957 -0.039143 0.124764
v -0.001986 -0.039212 0.13038
v -0.00145 -0.039032 0.126491
v 1e-06 -0.039809 0.128708
v 1e-06 -0.039807 0.126566
v -0.030202 -0.046635 0.110087
v -0.02913 -0.059478 0.109826
v 0.002862 -0.048503 0.130959
v 0.01227 -0.059709 0.126869
v 0.010712 -0.048233 0.129406
v 0.014762 -0.048364 0.127948
v 0.01266 -0.046479 0.127966
v 0.024481 -0.047705 0.12012
v 0.022051 -0.04786 0.122654
v 0.021998 -0.059806 0.119661
v 0.022429 -0.045686 0.120906
v 0.03482 -0.044394 0.083176
v 0.033868 -0.044781 0.097388
v 0.032559 -0.058984 0.096315
v 0.034086 -0.058178 0.082256
v 0.034288 -0.057484 0.073503
v 0.034122 -0.047348 0.074564
v 0.009835 -0.048047 0.114216
v 0.018227 -0.047949 0.101041
v 0.021896 -0.045731 0.081762
v 0.021113 -0.04675 0.072996
v 0.010423 -0.043794 0.122934
v 0.025409 -0.045488 0.072503
v 0.027976 -0.041208 0.082519
v 0.029279 -0.037131 0.083904
v 0.033453 -0.037149 0.08395
v 0.027255 -0.042486 0.096184
v 0.032554 -0.037948 0.097372
v 0.028143 -0.037931 0.09616
v 0.024211 -0.043559 0.107563
v 0.019249 -0.043805 0.117039
v 0.02122 -0.038683 0.1224
v 0.022038 -0.03958 0.120683
v 0.01891 -0.038665 0.119505
v 0.020112 -0.039568 0.118481
v 0.023158 -0.038589 0.119875
v 0.021301 -0.038577 0.117409
v 0.025219 -0.03816 0.108088
v 0.028035 -0.038175 0.109907
v 0.014003 -0.039058 0.127454
v 0.011891 -0.038944 0.123977
v 0.012192 -0.039839 0.127589
v 0.010762 -0.039833 0.124305
v 0.011276 -0.039158 0.128644
v 0.009958 -0.039143 0.124764
v 0.001987 -0.039212 0.13038
v 0.001451 -0.039032 0.126491
v 0.030203 -0.046635 0.110087
v 0.029131 -0.059478 0.109826
v -0.009834 -0.048047 0.114216
v 1e-06 -0.047947 0.116589
v -0.021112 -0.04675 0.072996
v -0.021895 -0.045731 0.081762
v -0.018226 -0.047949 0.101041
v 0.009835 -0.048047 0.114216
v 0.021896 -0.045731 0.081762
v 0.021113 -0.04675 0.072996
v 0.018227 -0.047949 0.101041

vn -0.031496 0.031496 0.992126
vn 0.007874 0.07874 0.992126
vn 0 0.220472 0.968504
vn 0.007874 -0.173228 0.984252
vn -0.370079 -0.188976 0.905512
vn -0.346457 0.023622 0.929134
vn -0.385827 0.023622 0.913386
vn -0.354331 0.15748 0.913386
vn -0.732283 0.070866 0.669291
vn -0.716535 -0.173228 0.669291
vn -0.724409 0.03937 0.685039
vn -0.716535 0.19685 0.661417
vn -0.897638 0.291339 -0.330709
vn -0.992126 -0.055118 0.023622
vn -0.976378 -0.094488 0.165354
vn -0.976378 0.055118 0.181102
vn -0.992126 -0.023622 -0.031496
vn -0.818898 0.503937 -0.259843
vn 0 0.96063 -0.275591
vn 0 0.992126 -0.047244
vn 0.354331 0.929134 -0.070866
vn 0.212598 0.929134 -0.299213
vn 0.362205 0.929134 -0.062992
vn 0 0.992126 -0.047244
vn 0.346457 0.929134 -0.133858
vn 0.322835 0.559055 -0.771654
vn 0.007874 0.598425 -0.80315
vn 0.417323 0.80315 -0.425197
vn 0.07874 0.944882 -0.307087
vn 0.448819 0.740157 -0.503937
vn -0.559055 0.700787 -0.433071
vn 0.818898 0.566929 -0.094488
vn -0.606299 0.771654 0.149606
vn 0.622047 0.779528 -0.070866
vn 0.755906 0.606299 -0.251969
vn 0.590551 0.559055 -0.582677
vn -0.637795 0.700787 0.307087
vn -0.503937 0.708661 0.480315
vn 0.417323 0.795276 -0.440945
vn 0.188976 0.787402 -0.582677
vn -0.307087 0.732283 0.606299
vn 0.645669 0.748031 -0.173228
vn 0.590551 0.779528 -0.188976
vn -0.566929 0.771654 0.267717
vn -0.055118 0.685039 0.716535
vn 0.464567 0.779528 -0.417323
vn -0.275591 0.669291 0.677165
vn 0.228346 0.795276 -0.566929
vn -0.464567 0.685039 0.551181
vn -0.031496 0.787402 -0.622047
vn 0.204724 0.708661 0.669291
vn 0.251969 0.818898 -0.519685
vn 0 0.716535 0.685039
vn 0.007874 0.850394 -0.519685
vn -0.913386 0.03937 0.393701
vn -0.905512 -0.11811 0.393701
vn 0.03937 0.031496 0.992126
vn 0.377953 -0.188976 0.905512
vn 0.354331 0.023622 0.929134
vn 0.393701 0.023622 0.913386
vn 0.362205 0.15748 0.913386
vn 0.740157 0.070866 0.669291
vn 0.732283 0.03937 0.685039
vn 0.724409 -0.173228 0.669291
vn 0.724409 0.19685 0.661417
vn 0.905512 0.291339 -0.330709
vn 0.984252 0.055118 0.181102
vn 0.984252 -0.094488 0.165354
vn 1 -0.055118 0.023622
vn 1 -0.023622 -0.031496
vn 0.826772 0.503937 -0.259843
vn -0.204724 0.929134 -0.299213
vn -0.346457 0.929134 -0.070866
vn -0.354331 0.929134 -0.062992
vn -0.338583 0.929134 -0.133858
vn -0.314961 0.559055 -0.771654
vn -0.070866 0.944882 -0.307087
vn -0.409449 0.80315 -0.425197
vn -0.440945 0.740157 -0.503937
vn 0.566929 0.700787 -0.433071
vn -0.811024 0.566929 -0.094488
vn 0.614173 0.771654 0.149606
vn -0.614173 0.779528 -0.070866
vn -0.748031 0.606299 -0.251969
vn -0.582677 0.559055 -0.582677
vn 0.645669 0.700787 0.307087
vn 0.511811 0.708661 0.480315
vn -0.181102 0.787402 -0.582677
vn -0.409449 0.795276 -0.440945
vn 0.314961 0.732283 0.606299
vn -0.637795 0.748031 -0.173228
vn -0.582677 0.779528 -0.188976
vn 0.574803 0.771654 0.267717
vn 0.062992 0.685039 0.716535
vn -0.456693 0.779528 -0.417323
vn 0.283465 0.669291 0.677165
vn -0.220472 0.795276 -0.566929
vn 0.472441 0.685039 0.551181
vn 0.03937 0.787402 -0.622047
vn -0.19685 0.708661 0.669291
vn -0.244094 0.818898 -0.519685
vn 0.92126 0.03937 0.393701
vn 0.913386 -0.11811 0.393701
vn 0.212598 0.929134 -0.299213
vn 0 0.96063 -0.275591
vn 0.346457 0.929134 -0.133858
vn 0.362205 0.929134 -0.062992
vn 0.354331 0.929134 -0.070866
vn -0.204724 0.929134 -0.299213
vn -0.354331 0.929134 -0.062992
vn -0.338583 0.929134 -0.133858
vn -0.346457 0.929134 -0.070866

vt 0.020491 0.422839
vt 0.017362 0.422839
vt 0.017362 0.428215
vt 0.017362 0.408299
vt 0.036044 0.408299
vt 0.033881 0.422839
vt 0.038823 0.422839
vt 0.036044 0.425968
vt 0.057147 0.422839
vt 0.053894 0.408299
vt 0.051036 0.422839
vt 0.053894 0.426241
vt 0.107747 0.422839
vt 0.107747 0.408299
vt 0.088245 0.408299
vt 0.088245 0.422839
vt 0.124011 0.408299
vt 0.124011 0.422839
vt 0.180764 0.47266
vt 0.180764 0.488407
vt 0.197253 0.493135
vt 0.193244 0.479461
vt 0.200774 0.512648
vt 0.180764 0.5183
vt 0.202111 0.521304
vt 0.036044 0.450176
vt 0.017362 0.450176
vt 0.107747 0.450176
vt 0.124011 0.450176
vt 0.103479 0.440791
vt 0.103479 0.434478
vt 0.088245 0.450176
vt 0.088245 0.434478
vt 0.088245 0.440789
vt 0.069236 0.450176
vt 0.053894 0.450176
vt 0.051036 0.434478
vt 0.053894 0.434478
vt 0.053894 0.440789
vt 0.051036 0.440789
vt 0.057147 0.434478
vt 0.057147 0.440791
vt 0.069236 0.440789
vt 0.069236 0.434478
vt 0.038823 0.434478
vt 0.038823 0.440789
vt 0.036044 0.434478
vt 0.036044 0.440789
vt 0.033881 0.434478
vt 0.033881 0.440789
vt 0.020491 0.434478
vt 0.020491 0.440789
vt 0.017362 0.434478
vt 0.017362 0.440791
vt 0.069236 0.422839
vt 0.069236 0.408299
vt 0.020491 0.422839
vt 0.036044 0.408299
vt 0.033881 0.422839
vt 0.038823 0.422839
vt 0.036044 0.425968
vt 0.057147 0.422839
vt 0.051036 0.422839
vt 0.053894 0.408299
vt 0.053894 0.426241
vt 0.107747 0.422839
vt 0.088245 0.422839
vt 0.088245 0.408299
vt 0.107747 0.408299
vt 0.124011 0.408299
vt 0.124011 0.422839
vt 0.193244 0.479461
vt 0.197253 0.493135
vt 0.200774 0.512648
vt 0.202111 0.521304
vt 0.036044 0.450176
vt 0.124011 0.450176
vt 0.107747 0.450176
vt 0.103479 0.440791
vt 0.103479 0.434478
vt 0.088245 0.450176
vt 0.088245 0.434478
vt 0.088245 0.440789
vt 0.069236 0.450176
vt 0.053894 0.450176
vt 0.051036 0.434478
vt 0.053894 0.434478
vt 0.051036 0.440789
vt 0.053894 0.440789
vt 0.057147 0.434478
vt 0.057147 0.440791
vt 0.069236 0.440789
vt 0.069236 0.434478
vt 0.038823 0.434478
vt 0.038823 0.440789
vt 0.036044 0.434478
vt 0.036044 0.440789
vt 0.033881 0.434478
vt 0.033881 0.440789
vt 0.020491 0.434478
vt 0.020491 0.440789
vt 0.069236 0.422839
vt 0.069236 0.408299
vt 0.044422 0.464569
vt 0.017362 0.464569
vt 0.124011 0.464569
vt 0.107747 0.464569
vt 0.078152 0.464569
vt 0.044422 0.464569
vt 0.107747 0.464569
vt 0.124011 0.464569
vt 0.078152 0.464569

f 1/1/1 2/2/2 3/3/3
f 1/1/1 4/4/4 2/2/2
f 5/5/5 4/4/4 1/1/1
f 5/5/5 1/1/1 6/6/6
f 7/7/7 5/5/5 6/6/6
f 8/8/8 7/7/7 6/6/6
f 11/11/11 5/5/5 7/7/7
f 11/11/11 10/10/10 5/5/5
f 9/9/9 10/10/10 11/11/11
f 12/12/12 9/9/9 11/11/11
f 37/37/37 12/12/12 11/11/11
f 37/37/37 38/38/38 12/12/12
f 41/41/41 12/12/12 38/38/38
f 41/41/41 9/9/9 12/12/12
f 42/42/42 41/41/41 38/38/38
f 42/42/42 38/38/38 39/39/39
f 37/37/37 39/39/39 38/38/38
f 36/36/36 42/42/42 39/39/39
f 36/36/36 39/39/39 40/40/40
f 37/37/37 40/40/40 39/39/39
f 43/43/43 41/41/41 42/42/42
f 43/43/43 44/44/44 41/41/41
f 35/35/35 42/42/42 36/36/36
f 35/35/35 43/43/43 42/42/42
f 35/35/35 36/36/36 104/104/104
f 35/35/35 104/104/104 108/108/108
f 35/35/35 108/108/108 32/32/32
f 43/43/43 35/35/35 32/32/32
f 32/32/32 108/108/108 107/107/107
f 32/32/32 107/107/107 28/28/28
f 28/28/28 107/107/107 106/106/106
f 28/28/28 106/106/106 29/29/29
f 13/13/13 28/28/28 29/29/29
f 13/13/13 29/29/29 18/18/18
f 17/17/17 13/13/13 18/18/18
f 17/17/17 14/14/14 13/13/13
f 13/13/13 14/14/14 15/15/15
f 13/13/13 15/15/15 16/16/16
f 30/30/30 28/28/28 13/13/13
f 30/30/30 13/13/13 31/31/31
f 33/33/33 30/30/30 31/31/31
f 33/33/33 13/13/13 16/16/16
f 33/33/33 31/31/31 13/13/13
f 33/33/33 34/34/34 30/30/30
f 34/34/34 28/28/28 30/30/30
f 34/34/34 32/32/32 28/28/28
f 43/43/43 32/32/32 34/34/34
f 33/33/33 43/43/43 34/34/34
f 44/44/44 33/33/33 16/16/16
f 33/33/33 44/44/44 43/43/43
f 44/44/44 16/16/16 55/55/55
f 41/41/41 44/44/44 55/55/55
f 41/41/41 55/55/55 9/9/9
f 55/55/55 10/10/10 9/9/9
f 55/55/55 56/56/56 10/10/10
f 56/56/56 16/16/16 15/15/15
f 56/56/56 55/55/55 16/16/16
f 19/19/19 21/21/21 22/22/22
f 19/19/19 20/20/20 21/21/21
f 24/24/24 21/21/21 20/20/20
f 24/24/24 23/23/23 21/21/21
f 23/23/23 24/24/24 25/25/25
f 19/19/19 73/73/73 20/20/20
f 24/24/24 20/20/20 73/73/73
f 19/19/19 72/72/72 73/73/73
f 24/24/24 73/73/73 74/74/74
f 74/74/74 75/75/75 24/24/24
f 104/104/104 27/27/27 105/105/105
f 104/104/104 26/26/26 27/27/27
f 36/36/36 26/26/26 104/104/104
f 46/46/46 26/26/26 36/36/36
f 46/46/46 36/36/36 40/40/40
f 45/45/45 46/46/46 40/40/40
f 45/45/45 40/40/40 37/37/37
f 45/45/45 37/37/37 11/11/11
f 45/45/45 11/11/11 7/7/7
f 47/47/47 45/45/45 7/7/7
f 47/47/47 46/46/46 45/45/45
f 47/47/47 7/7/7 8/8/8
f 47/47/47 48/48/48 46/46/46
f 48/48/48 26/26/26 46/46/46
f 6/6/6 47/47/47 8/8/8
f 6/6/6 49/49/49 47/47/47
f 49/49/49 48/48/48 47/47/47
f 49/49/49 50/50/50 48/48/48
f 50/50/50 26/26/26 48/48/48
f 51/51/51 49/49/49 6/6/6
f 51/51/51 50/50/50 49/49/49
f 51/51/51 6/6/6 1/1/1
f 51/51/51 52/52/52 50/50/50
f 52/52/52 26/26/26 50/50/50
f 52/52/52 27/27/27 26/26/26
f 3/3/3 51/51/51 1/1/1
f 3/3/3 53/53/53 51/51/51
f 53/53/53 52/52/52 51/51/51
f 53/53/53 54/54/54 52/52/52
f 52/52/52 54/54/54 27/27/27
f 3/3/3 100/100/100 53/53/53
f 3/3/3 57/57/57 100/100/100
f 57/57/57 3/3/3 2/2/2
f 57/57/57 2/2/2 4/4/4
f 58/58/58 57/57/57 4/4/4
f 58/58/58 59/59/59 57/57/57
f 100/100/100 57/57/57 59/59/59
f 60/60/60 59/59/59 58/58/58
f 61/61/61 59/59/59 60/60/60
f 63/63/63 60/60/60 58/58/58
f 63/63/63 58/58/58 64/64/64
f 62/62/62 63/63/63 64/64/64
f 65/65/65 63/63/63 62/62/62
f 86/86/86 63/63/63 65/65/65
f 86/86/86 65/65/65 87/87/87
f 90/90/90 65/65/65 62/62/62
f 90/90/90 87/87/87 65/65/65
f 91/91/91 87/87/87 90/90/90
f 91/91/91 89/89/89 87/87/87
f 86/86/86 87/87/87 89/89/89
f 85/85/85 89/89/89 91/91/91
f 85/85/85 88/88/88 89/89/89
f 86/86/86 89/89/89 88/88/88
f 92/92/92 91/91/91 90/90/90
f 92/92/92 90/90/90 93/93/93
f 84/84/84 91/91/91 92/92/92
f 84/84/84 85/85/85 91/91/91
f 84/84/84 109/109/109 85/85/85
f 84/84/84 112/112/112 109/109/109
f 84/84/84 81/81/81 112/112/112
f 92/92/92 81/81/81 84/84/84
f 81/81/81 110/110/110 112/112/112
f 81/81/81 78/78/78 110/110/110
f 78/78/78 111/111/111 110/110/110
f 78/78/78 77/77/77 111/111/111
f 66/66/66 77/77/77 78/78/78
f 66/66/66 71/71/71 77/77/77
f 70/70/70 71/71/71 66/66/66
f 70/70/70 66/66/66 69/69/69
f 66/66/66 68/68/68 69/69/69
f 66/66/66 67/67/67 68/68/68
f 79/79/79 66/66/66 78/78/78
f 79/79/79 80/80/80 66/66/66
f 82/82/82 80/80/80 79/79/79
f 82/82/82 66/66/66 80/80/80
f 82/82/82 67/67/67 66/66/66
f 82/82/82 79/79/79 83/83/83
f 83/83/83 78/78/78 81/81/81
f 83/83/83 79/79/79 78/78/78
f 92/92/92 83/83/83 81/81/81
f 82/82/82 83/83/83 92/92/92
f 93/93/93 67/67/67 82/82/82
f 82/82/82 92/92/92 93/93/93
f 93/93/93 102/102/102 67/67/67
f 90/90/90 102/102/102 93/93/93
f 90/90/90 62/62/62 102/102/102
f 102/102/102 62/62/62 64/64/64
f 102/102/102 64/64/64 103/103/103
f 103/103/103 67/67/67 102/102/102
f 103/103/103 68/68/68 67/67/67
f 109/109/109 27/27/27 76/76/76
f 109/109/109 105/105/105 27/27/27
f 85/85/85 109/109/109 76/76/76
f 95/95/95 85/85/85 76/76/76
f 95/95/95 88/88/88 85/85/85
f 94/94/94 88/88/88 95/95/95
f 94/94/94 86/86/86 88/88/88
f 94/94/94 63/63/63 86/86/86
f 94/94/94 60/60/60 63/63/63
f 96/96/96 60/60/60 94/94/94
f 96/96/96 94/94/94 95/95/95
f 96/96/96 61/61/61 60/60/60
f 96/96/96 95/95/95 97/97/97
f 97/97/97 95/95/95 76/76/76
f 59/59/59 61/61/61 96/96/96
f 59/59/59 96/96/96 98/98/98
f 98/98/98 96/96/96 97/97/97
f 98/98/98 97/97/97 99/99/99
f 99/99/99 97/97/97 76/76/76
f 100/100/100 59/59/59 98/98/98
f 100/100/100 98/98/98 99/99/99
f 100/100/100 99/99/99 101/101/101
f 101/101/101 99/99/99 76/76/76
f 101/101/101 76/76/76 27/27/27
f 53/53/53 100/100/100 101/101/101
f 53/53/53 101/101/101 54/54/54
f 101/101/101 27/27/27 54/54/54
