# PCF Mesh Export
# vertexCount=145  triCount=272
# materialID=e9cecbec

v 0.021842 0.00922 -3.9e-05
v 0.016717 0.016891 -3.9e-05
v 0.009048 0.022017 -3.9e-05
v 0 0.023818 -3.9e-05
v -0.009047 0.022015 -3.9e-05
v -0.016717 0.016893 -3.9e-05
v -0.021841 0.009225 -3.9e-05
v -0.023642 0.000174 -3.9e-05
v -0.021841 -0.008874 -3.9e-05
v -0.016717 -0.016543 -3.9e-05
v -0.009047 -0.021669 -3.9e-05
v 1e-06 -0.023467 -3.9e-05
v 0.009048 -0.021665 -3.9e-05
v 0.016717 -0.016542 -3.9e-05
v 0.021842 -0.008873 -3.9e-05
v 0.023642 0.000174 -3.9e-05
v 0.021424 0.00905 0.004608
v 0.016397 0.016568 0.004608
v 0.008874 0.0216 0.004608
v 0 0.023361 0.004608
v -0.008873 0.021599 0.004608
v -0.016396 0.016568 0.004608
v -0.021423 0.009048 0.004608
v -0.023189 0.000172 0.004608
v -0.021423 -0.008696 0.004608
v -0.016396 -0.016223 0.004608
v -0.008873 -0.021248 0.004608
v 0 -0.023014 0.004608
v 0.008874 -0.021248 0.004608
v 0.016397 -0.016224 0.004608
v 0.021424 -0.008703 0.004608
v 0.023189 0.000174 0.004608
v 0.020183 0.008537 0.009039
v 0.015448 0.015624 0.009039
v 0.00836 0.020356 0.009039
v 0 0.022022 0.009039
v -0.00836 0.020357 0.009039
v -0.015447 0.015624 0.009039
v -0.020182 0.008536 0.009039
v -0.021845 0.000174 0.009039
v -0.020183 -0.008184 0.009039
v -0.015447 -0.015274 0.009039
v -0.00836 -0.020009 0.009039
v 0 -0.021672 0.009039
v 0.00836 -0.02001 0.009039
v 0.015448 -0.015271 0.00904
v 0.020183 -0.008189 0.00904
v 0.021846 0.000174 0.009039
v 0.018168 0.007698 0.013124
v 0.013905 0.01408 0.013124
v 0.007526 0.01834 0.013124
v 0 0.01984 0.013124
v -0.007525 0.018339 0.013124
v -0.013904 0.014076 0.013124
v -0.018167 0.007699 0.013124
v -0.019664 0.000176 0.013124
v -0.018168 -0.007353 0.013124
v -0.013904 -0.013733 0.013124
v -0.007525 -0.017996 0.013124
v 0 -0.019491 0.013124
v 0.007526 -0.01799 0.013124
v 0.013905 -0.01373 0.013124
v 0.018168 -0.00735 0.013124
v 0.019665 0.000174 0.013124
v 0.015456 0.006575 0.016706
v 0.011829 0.012001 0.016706
v 0.006402 0.01563 0.016706
v 0 0.016905 0.016706
v -0.006401 0.01563 0.016706
v -0.011829 0.012002 0.016706
v -0.015455 0.006574 0.016706
v -0.016728 0.000177 0.016706
v -0.015455 -0.00623 0.016706
v -0.011829 -0.011656 0.016706
v -0.006401 -0.015279 0.016706
v 0 -0.016551 0.016706
v 0.006402 -0.01528 0.016706
v 0.011829 -0.011652 0.016706
v 0.015456 -0.006226 0.016706
v 0.016729 0.000174 0.016706
v 0.01215 0.005204 0.019647
v 0.009299 0.009474 0.019647
v 0.005033 0.012324 0.019647
v 0 0.013321 0.019647
v -0.005032 0.012321 0.019647
v -0.009298 0.009471 0.019647
v -0.012149 0.005209 0.019647
v -0.01315 0.000172 0.019647
v -0.012149 -0.004857 0.019647
v -0.009298 -0.009122 0.019647
v -0.005032 -0.011976 0.019647
v 0 -0.012976 0.019647
v 0.005033 -0.011973 0.019647
v 0.009299 -0.009126 0.019647
v 0.01215 -0.004856 0.019647
v 0.01315 0.000174 0.019647
v 0.008377 0.003645 0.019649
v 0.006412 0.006584 0.019649
v 0.00347 0.008554 0.019649
v 0 0.00924 0.019649
v -0.003469 0.008552 0.019649
v -0.006411 0.006584 0.019649
v -0.008376 0.003645 0.019649
v -0.009067 0.000176 0.019649
v -0.008376 -0.003296 0.019649
v -0.006411 -0.006236 0.019649
v -0.003469 -0.008203 0.019649
v 0 -0.008892 0.01965
v 0.00347 -0.008206 0.019649
v 0.006412 -0.006236 0.019649
v 0.008377 -0.003298 0.019649
v 0.009067 0.000174 0.019649
v 0.004282 0.001949 0.019649
v 0.003277 0.003452 0.019649
v 0.001774 0.004453 0.019649
v 0 0.004806 0.019649
v -0.001773 0.004453 0.019649
v -0.003277 0.003451 0.019649
v -0.004281 0.001949 0.019649
v -0.004634 0.000176 0.019649
v -0.004281 -0.001598 0.019649
v -0.003277 -0.003103 0.019649
v -0.001773 -0.004105 0.019649
v 0 -0.004458 0.019649
v 0.001774 -0.004105 0.019649
v 0.003277 -0.003104 0.019649
v 0.004282 -0.001596 0.019649
v 0.004635 0.000174 0.019649
v 0 0.000174 0.019649
v 0.021242 0.008971 -0.004723
v 0.016259 0.016432 -0.004723
v 0.0088 0.021418 -0.004723
v 0 0.023169 -0.004723
v -0.008798 0.021415 -0.004723
v -0.016258 0.016435 -0.004723
v -0.021243 0.008976 -0.004723
v -0.022992 0.000174 -0.004723
v -0.021242 -0.008626 -0.004723
v -0.016258 -0.016084 -0.004723
v -0.008798 -0.02107 -0.004723
v 1e-06 -0.022818 -0.004723
v 0.008799 -0.021064 -0.004724
v 0.016257 -0.016082 -0.004724
v 0.021241 -0.008624 -0.004724
v 0.022992 0.000174 -0.004724

vn 0.92126 0.377953 0.094488
vn 0.708661 0.700787 0.094488
vn 0.385827 0.913386 0.094488
vn 0 0.992126 0.094488
vn -0.377953 0.913386 0.094488
vn -0.700787 0.700787 0.094488
vn -0.913386 0.377953 0.094488
vn -0.992126 0 0.094488
vn -0.913386 -0.385827 0.094488
vn -0.700787 -0.708661 0.094488
vn -0.377953 -0.92126 0.094488
vn 0.007874 -1 0.094488
vn 0.385827 -0.92126 0.094488
vn 0.708661 -0.708661 0.094488
vn 0.92126 -0.385827 0.094488
vn 1 0 0.094488
vn 0.913386 0.370079 0.188976
vn 0.700787 0.692913 0.188976
vn 0.377953 0.905512 0.188976
vn 0 0.976378 0.188976
vn -0.370079 0.905512 0.188976
vn -0.692913 0.692913 0.188976
vn -0.905512 0.370079 0.188976
vn -0.976378 -0.007874 0.188976
vn -0.905512 -0.377953 0.188976
vn -0.692913 -0.700787 0.188976
vn -0.370079 -0.913386 0.188976
vn 0.007874 -0.984252 0.188976
vn 0.377953 -0.913386 0.188976
vn 0.700787 -0.700787 0.188976
vn 0.913386 -0.377953 0.188976
vn 0.984252 0 0.188976
vn 0.858268 0.354331 0.370079
vn 0.661417 0.653543 0.370079
vn 0.362205 0.850394 0.370079
vn 0 0.92126 0.370079
vn -0.354331 0.850394 0.370079
vn -0.653543 0.653543 0.370079
vn -0.850394 0.354331 0.370079
vn -0.92126 0 0.370079
vn -0.850394 -0.362205 0.370079
vn -0.653543 -0.661417 0.370079
vn -0.354331 -0.858268 0.370079
vn 0.007874 -0.929134 0.370079
vn 0.362205 -0.858268 0.370079
vn 0.661417 -0.661417 0.370079
vn 0.858268 -0.362205 0.370079
vn 0.929134 -0.007874 0.370079
vn 0.779528 0.314961 0.543307
vn 0.598425 0.590551 0.543307
vn 0.322835 0.771654 0.543307
vn 0 0.834646 0.543307
vn -0.314961 0.771654 0.543307
vn -0.590551 0.590551 0.543307
vn -0.771654 0.314961 0.543307
vn -0.834646 0 0.543307
vn -0.771654 -0.322835 0.543307
vn -0.590551 -0.598425 0.543307
vn -0.314961 -0.779528 0.543307
vn 0.007874 -0.84252 0.543307
vn 0.322835 -0.779528 0.543307
vn 0.598425 -0.598425 0.543307
vn 0.779528 -0.322835 0.543307
vn 0.84252 -0.007874 0.543307
vn 0.669291 0.267717 0.692913
vn 0.511811 0.503937 0.692913
vn 0.275591 0.661417 0.692913
vn 0 0.716535 0.692913
vn -0.275591 0.661417 0.692913
vn -0.503937 0.503937 0.692913
vn -0.661417 0.267717 0.692913
vn -0.716535 0 0.692913
vn -0.661417 -0.275591 0.692913
vn -0.503937 -0.511811 0.692913
vn -0.267717 -0.669291 0.692913
vn 0.007874 -0.724409 0.692913
vn 0.275591 -0.669291 0.692913
vn 0.511811 -0.511811 0.692913
vn 0.669291 -0.275591 0.692913
vn 0.724409 -0.007874 0.692913
vn 0.535433 0.212598 0.811024
vn 0.409449 0.401575 0.811024
vn 0.220472 0.527559 0.811024
vn 0 0.574803 0.811024
vn -0.212598 0.527559 0.811024
vn -0.401575 0.401575 0.811024
vn -0.527559 0.212598 0.811024
vn -0.574803 -0.007874 0.811024
vn -0.527559 -0.220472 0.811024
vn -0.401575 -0.409449 0.811024
vn -0.212598 -0.535433 0.811024
vn 0.007874 -0.582677 0.811024
vn 0.220472 -0.535433 0.811024
vn 0.409449 -0.409449 0.811024
vn 0.535433 -0.220472 0.811024
vn 0.582677 -0.007874 0.811024
vn 0.385827 0.15748 0.905512
vn 0.299213 0.291339 0.905512
vn 0.165354 0.377953 0.905512
vn 0 0.409449 0.905512
vn -0.15748 0.377953 0.905512
vn -0.291339 0.291339 0.905512
vn -0.377953 0.15748 0.905512
vn -0.409449 0 0.905512
vn -0.377953 -0.165354 0.905512
vn -0.291339 -0.299213 0.905512
vn -0.15748 -0.385827 0.905512
vn 0.007874 -0.417323 0.905512
vn 0.165354 -0.385827 0.905512
vn 0.299213 -0.299213 0.905512
vn 0.385827 -0.165354 0.905512
vn 0.417323 -0.007874 0.905512
vn 0.23622 0.094488 0.96063
vn 0.181102 0.173228 0.96063
vn 0.102362 0.228346 0.96063
vn 0 0.244094 0.96063
vn -0.094488 0.228346 0.96063
vn -0.173228 0.173228 0.96063
vn -0.228346 0.094488 0.96063
vn -0.244094 0 0.96063
vn -0.228346 -0.102362 0.96063
vn -0.173228 -0.181102 0.96063
vn -0.094488 -0.23622 0.96063
vn 0 -0.251969 0.96063
vn 0.102362 -0.23622 0.96063
vn 0.181102 -0.181102 0.96063
vn 0.23622 -0.102362 0.96063
vn 0.251969 -0.007874 0.96063
vn 0 -0.007874 1
vn 0.92126 0.377953 -0.141732
vn 0.700787 0.692913 -0.141732
vn 0.385827 0.913386 -0.141732
vn 0 0.984252 -0.141732
vn -0.377953 0.913386 -0.141732
vn -0.692913 0.692913 -0.141732
vn -0.913386 0.377953 -0.141732
vn -0.984252 -0.007874 -0.141732
vn -0.913386 -0.385827 -0.141732
vn -0.692913 -0.700787 -0.141732
vn -0.377953 -0.92126 -0.141732
vn 0.007874 -0.992126 -0.141732
vn 0.385827 -0.92126 -0.141732
vn 0.700787 -0.700787 -0.141732
vn 0.92126 -0.385827 -0.141732
vn 0.992126 0 -0.141732

vt 0.373287 0.513803
vt 0.350375 0.536539
vt 0.321394 0.54861
vt 0.28961 0.54866
vt 0.260271 0.536448
vt 0.238097 0.514282
vt 0.225655 0.48474
vt 0.225359 0.453181
vt 0.237438 0.423406
vt 0.259688 0.401002
vt 0.289255 0.3885
vt 0.320808 0.388215
vt 0.350586 0.400298
vt 0.373008 0.422595
vt 0.385488 0.452406
vt 0.385461 0.484321
vt 0.365885 0.509146
vt 0.345666 0.52914
vt 0.319749 0.539993
vt 0.291285 0.540059
vt 0.265037 0.529069
vt 0.24522 0.509146
vt 0.234264 0.48302
vt 0.233957 0.454567
vt 0.24487 0.428038
vt 0.264854 0.408135
vt 0.290959 0.397082
vt 0.319418 0.396811
vt 0.345969 0.407735
vt 0.365877 0.427723
vt 0.376937 0.453959
vt 0.376992 0.482683
vt 0.3575 0.503468
vt 0.340267 0.5205
vt 0.317875 0.529951
vt 0.293288 0.530036
vt 0.270628 0.520506
vt 0.253583 0.503208
vt 0.24412 0.480935
vt 0.243972 0.456309
vt 0.253468 0.433522
vt 0.270784 0.416391
vt 0.293096 0.407025
vt 0.317691 0.406833
vt 0.34048 0.41633
vt 0.357621 0.43364
vt 0.366999 0.455986
vt 0.367103 0.480705
vt 0.349373 0.497792
vt 0.334933 0.512338
vt 0.315918 0.520284
vt 0.295236 0.520325
vt 0.276164 0.512346
vt 0.261688 0.497688
vt 0.253761 0.478798
vt 0.253673 0.458125
vt 0.261636 0.439006
vt 0.276322 0.424553
vt 0.295206 0.416618
vt 0.31588 0.416533
vt 0.33498 0.424507
vt 0.349458 0.439162
vt 0.357394 0.458065
vt 0.357468 0.478757
vt 0.341717 0.492596
vt 0.329751 0.504616
vt 0.314063 0.511121
vt 0.29707 0.511127
vt 0.281379 0.50461
vt 0.269375 0.492585
vt 0.262914 0.476897
vt 0.262878 0.459925
vt 0.269369 0.444207
vt 0.281453 0.432281
vt 0.297094 0.425751
vt 0.314074 0.425737
vt 0.329762 0.432248
vt 0.341744 0.444284
vt 0.348257 0.459947
vt 0.348271 0.476925
vt 0.33397 0.487416
vt 0.324546 0.496855
vt 0.312224 0.50195
vt 0.298895 0.501937
vt 0.286584 0.496828
vt 0.277201 0.48738
vt 0.272007 0.475117
vt 0.272056 0.461755
vt 0.277195 0.449472
vt 0.286556 0.439984
vt 0.298909 0.434902
vt 0.312251 0.434913
vt 0.324571 0.440025
vt 0.333995 0.449453
vt 0.339093 0.461782
vt 0.339084 0.475111
vt 0.325326 0.481664
vt 0.318761 0.48821
vt 0.310185 0.49176
vt 0.300912 0.491744
vt 0.292347 0.488191
vt 0.285796 0.481609
vt 0.282222 0.473052
vt 0.282247 0.463779
vt 0.285823 0.455197
vt 0.292371 0.448626
vt 0.30095 0.445087
vt 0.310235 0.445106
vt 0.31881 0.448659
vt 0.325364 0.455241
vt 0.328902 0.463812
vt 0.328889 0.473095
vt 0.315595 0.475188
vt 0.312238 0.478508
vt 0.307892 0.48028
vt 0.303164 0.480264
vt 0.298824 0.478448
vt 0.295499 0.475103
vt 0.293707 0.470742
vt 0.293731 0.466025
vt 0.295565 0.461662
vt 0.298906 0.458339
vt 0.303268 0.456567
vt 0.307972 0.456589
vt 0.312328 0.458424
vt 0.315653 0.461771
vt 0.317437 0.466149
vt 0.317412 0.470852
vt 0.305569 0.468419
vt 0.381723 0.51881
vt 0.355809 0.544641
vt 0.323446 0.558044
vt 0.287777 0.558198
vt 0.254847 0.544482
vt 0.230077 0.519805
vt 0.216037 0.486405
vt 0.215826 0.451606
vt 0.229262 0.418089
vt 0.254116 0.392973
vt 0.287572 0.378885
vt 0.322368 0.378682
vt 0.355886 0.392116
vt 0.381045 0.417032
vt 0.395156 0.450864
vt 0.394921 0.486112

f 1/1/1 18/18/18 17/17/17
f 1/1/1 2/2/2 18/18/18
f 2/2/2 19/19/19 18/18/18
f 2/2/2 3/3/3 19/19/19
f 3/3/3 20/20/20 19/19/19
f 3/3/3 4/4/4 20/20/20
f 4/4/4 21/21/21 20/20/20
f 4/4/4 5/5/5 21/21/21
f 5/5/5 22/22/22 21/21/21
f 5/5/5 6/6/6 22/22/22
f 6/6/6 23/23/23 22/22/22
f 6/6/6 7/7/7 23/23/23
f 7/7/7 24/24/24 23/23/23
f 7/7/7 8/8/8 24/24/24
f 8/8/8 25/25/25 24/24/24
f 8/8/8 9/9/9 25/25/25
f 9/9/9 26/26/26 25/25/25
f 9/9/9 10/10/10 26/26/26
f 10/10/10 27/27/27 26/26/26
f 10/10/10 11/11/11 27/27/27
f 11/11/11 28/28/28 27/27/27
f 11/11/11 12/12/12 28/28/28
f 12/12/12 29/29/29 28/28/28
f 12/12/12 13/13/13 29/29/29
f 13/13/13 30/30/30 29/29/29
f 13/13/13 14/14/14 30/30/30
f 14/14/14 31/31/31 30/30/30
f 14/14/14 15/15/15 31/31/31
f 15/15/15 32/32/32 31/31/31
f 15/15/15 16/16/16 32/32/32
f 16/16/16 17/17/17 32/32/32
f 16/16/16 1/1/1 17/17/17
f 26/26/26 27/27/27 43/43/43
f 27/27/27 44/44/44 43/43/43
f 27/27/27 28/28/28 44/44/44
f 28/28/28 45/45/45 44/44/44
f 28/28/28 29/29/29 45/45/45
f 29/29/29 46/46/46 45/45/45
f 29/29/29 30/30/30 46/46/46
f 30/30/30 47/47/47 46/46/46
f 30/30/30 31/31/31 47/47/47
f 31/31/31 48/48/48 47/47/47
f 31/31/31 32/32/32 48/48/48
f 32/32/32 33/33/33 48/48/48
f 32/32/32 17/17/17 33/33/33
f 17/17/17 34/34/34 33/33/33
f 17/17/17 18/18/18 34/34/34
f 18/18/18 35/35/35 34/34/34
f 18/18/18 19/19/19 35/35/35
f 19/19/19 36/36/36 35/35/35
f 19/19/19 20/20/20 36/36/36
f 20/20/20 37/37/37 36/36/36
f 20/20/20 21/21/21 37/37/37
f 21/21/21 38/38/38 37/37/37
f 21/21/21 22/22/22 38/38/38
f 22/22/22 39/39/39 38/38/38
f 22/22/22 23/23/23 39/39/39
f 23/23/23 40/40/40 39/39/39
f 23/23/23 24/24/24 40/40/40
f 24/24/24 41/41/41 40/40/40
f 24/24/24 25/25/25 41/41/41
f 25/25/25 42/42/42 41/41/41
f 25/25/25 26/26/26 42/42/42
f 26/26/26 43/43/43 42/42/42
f 36/36/36 37/37/37 53/53/53
f 36/36/36 53/53/53 52/52/52
f 37/37/37 54/54/54 53/53/53
f 37/37/37 38/38/38 54/54/54
f 38/38/38 55/55/55 54/54/54
f 38/38/38 39/39/39 55/55/55
f 39/39/39 56/56/56 55/55/55
f 39/39/39 40/40/40 56/56/56
f 40/40/40 57/57/57 56/56/56
f 40/40/40 41/41/41 57/57/57
f 41/41/41 58/58/58 57/57/57
f 41/41/41 42/42/42 58/58/58
f 42/42/42 59/59/59 58/58/58
f 42/42/42 43/43/43 59/59/59
f 43/43/43 60/60/60 59/59/59
f 43/43/43 44/44/44 60/60/60
f 44/44/44 61/61/61 60/60/60
f 44/44/44 45/45/45 61/61/61
f 45/45/45 62/62/62 61/61/61
f 45/45/45 46/46/46 62/62/62
f 46/46/46 63/63/63 62/62/62
f 46/46/46 47/47/47 63/63/63
f 47/47/47 64/64/64 63/63/63
f 47/47/47 48/48/48 64/64/64
f 48/48/48 49/49/49 64/64/64
f 48/48/48 33/33/33 49/49/49
f 33/33/33 50/50/50 49/49/49
f 33/33/33 34/34/34 50/50/50
f 34/34/34 51/51/51 50/50/50
f 34/34/34 35/35/35 51/51/51
f 35/35/35 52/52/52 51/51/51
f 35/35/35 36/36/36 52/52/52
f 49/49/49 50/50/50 66/66/66
f 49/49/49 66/66/66 65/65/65
f 64/64/64 49/49/49 65/65/65
f 50/50/50 67/67/67 66/66/66
f 50/50/50 51/51/51 67/67/67
f 51/51/51 68/68/68 67/67/67
f 51/51/51 52/52/52 68/68/68
f 52/52/52 69/69/69 68/68/68
f 52/52/52 53/53/53 69/69/69
f 53/53/53 70/70/70 69/69/69
f 53/53/53 54/54/54 70/70/70
f 54/54/54 71/71/71 70/70/70
f 54/54/54 55/55/55 71/71/71
f 55/55/55 72/72/72 71/71/71
f 55/55/55 56/56/56 72/72/72
f 56/56/56 73/73/73 72/72/72
f 56/56/56 57/57/57 73/73/73
f 57/57/57 74/74/74 73/73/73
f 57/57/57 58/58/58 74/74/74
f 58/58/58 75/75/75 74/74/74
f 58/58/58 59/59/59 75/75/75
f 59/59/59 76/76/76 75/75/75
f 59/59/59 60/60/60 76/76/76
f 60/60/60 77/77/77 76/76/76
f 60/60/60 61/61/61 77/77/77
f 61/61/61 78/78/78 77/77/77
f 61/61/61 62/62/62 78/78/78
f 62/62/62 79/79/79 78/78/78
f 62/62/62 63/63/63 79/79/79
f 63/63/63 80/80/80 79/79/79
f 63/63/63 64/64/64 80/80/80
f 64/64/64 65/65/65 80/80/80
f 74/74/74 75/75/75 91/91/91
f 74/74/74 91/91/91 90/90/90
f 75/75/75 92/92/92 91/91/91
f 75/75/75 76/76/76 92/92/92
f 76/76/76 93/93/93 92/92/92
f 76/76/76 77/77/77 93/93/93
f 77/77/77 94/94/94 93/93/93
f 77/77/77 78/78/78 94/94/94
f 78/78/78 95/95/95 94/94/94
f 78/78/78 79/79/79 95/95/95
f 79/79/79 96/96/96 95/95/95
f 79/79/79 80/80/80 96/96/96
f 80/80/80 81/81/81 96/96/96
f 80/80/80 65/65/65 81/81/81
f 65/65/65 82/82/82 81/81/81
f 65/65/65 66/66/66 82/82/82
f 66/66/66 83/83/83 82/82/82
f 66/66/66 67/67/67 83/83/83
f 67/67/67 84/84/84 83/83/83
f 67/67/67 68/68/68 84/84/84
f 68/68/68 85/85/85 84/84/84
f 68/68/68 69/69/69 85/85/85
f 69/69/69 86/86/86 85/85/85
f 69/69/69 70/70/70 86/86/86
f 70/70/70 87/87/87 86/86/86
f 70/70/70 71/71/71 87/87/87
f 71/71/71 88/88/88 87/87/87
f 71/71/71 72/72/72 88/88/88
f 72/72/72 89/89/89 88/88/88
f 72/72/72 73/73/73 89/89/89
f 73/73/73 90/90/90 89/89/89
f 73/73/73 74/74/74 90/90/90
f 83/83/83 84/84/84 100/100/100
f 84/84/84 101/101/101 100/100/100
f 84/84/84 85/85/85 101/101/101
f 85/85/85 102/102/102 101/101/101
f 85/85/85 86/86/86 102/102/102
f 86/86/86 103/103/103 102/102/102
f 86/86/86 87/87/87 103/103/103
f 87/87/87 104/104/104 103/103/103
f 87/87/87 88/88/88 104/104/104
f 88/88/88 105/105/105 104/104/104
f 88/88/88 89/89/89 105/105/105
f 89/89/89 106/106/106 105/105/105
f 89/89/89 90/90/90 106/106/106
f 90/90/90 107/107/107 106/106/106
f 90/90/90 91/91/91 107/107/107
f 91/91/91 108/108/108 107/107/107
f 91/91/91 92/92/92 108/108/108
f 92/92/92 109/109/109 108/108/108
f 92/92/92 93/93/93 109/109/109
f 93/93/93 110/110/110 109/109/109
f 93/93/93 94/94/94 110/110/110
f 94/94/94 111/111/111 110/110/110
f 94/94/94 95/95/95 111/111/111
f 95/95/95 112/112/112 111/111/111
f 95/95/95 96/96/96 112/112/112
f 96/96/96 97/97/97 112/112/112
f 96/96/96 81/81/81 97/97/97
f 81/81/81 98/98/98 97/97/97
f 81/81/81 82/82/82 98/98/98
f 82/82/82 99/99/99 98/98/98
f 82/82/82 83/83/83 99/99/99
f 83/83/83 100/100/100 99/99/99
f 97/97/97 98/98/98 114/114/114
f 97/97/97 114/114/114 113/113/113
f 112/112/112 97/97/97 113/113/113
f 98/98/98 115/115/115 114/114/114
f 98/98/98 99/99/99 115/115/115
f 99/99/99 116/116/116 115/115/115
f 99/99/99 100/100/100 116/116/116
f 100/100/100 117/117/117 116/116/116
f 100/100/100 101/101/101 117/117/117
f 101/101/101 118/118/118 117/117/117
f 101/101/101 102/102/102 118/118/118
f 102/102/102 119/119/119 118/118/118
f 102/102/102 103/103/103 119/119/119
f 103/103/103 120/120/120 119/119/119
f 103/103/103 104/104/104 120/120/120
f 104/104/104 121/121/121 120/120/120
f 104/104/104 105/105/105 121/121/121
f 105/105/105 122/122/122 121/121/121
f 105/105/105 106/106/106 122/122/122
f 106/106/106 123/123/123 122/122/122
f 106/106/106 107/107/107 123/123/123
f 107/107/107 124/124/124 123/123/123
f 107/107/107 108/108/108 124/124/124
f 108/108/108 125/125/125 124/124/124
f 108/108/108 109/109/109 125/125/125
f 109/109/109 126/126/126 125/125/125
f 109/109/109 110/110/110 126/126/126
f 110/110/110 127/127/127 126/126/126
f 110/110/110 111/111/111 127/127/127
f 111/111/111 128/128/128 127/127/127
f 111/111/111 112/112/112 128/128/128
f 112/112/112 113/113/113 128/128/128
f 122/122/122 123/123/123 129/129/129
f 123/123/123 124/124/124 129/129/129
f 124/124/124 125/125/125 129/129/129
f 125/125/125 126/126/126 129/129/129
f 126/126/126 127/127/127 129/129/129
f 127/127/127 128/128/128 129/129/129
f 128/128/128 113/113/113 129/129/129
f 113/113/113 114/114/114 129/129/129
f 114/114/114 115/115/115 129/129/129
f 115/115/115 116/116/116 129/129/129
f 116/116/116 117/117/117 129/129/129
f 117/117/117 118/118/118 129/129/129
f 118/118/118 119/119/119 129/129/129
f 119/119/119 120/120/120 129/129/129
f 120/120/120 121/121/121 129/129/129
f 121/121/121 122/122/122 129/129/129
f 2/2/2 130/130/130 131/131/131
f 2/2/2 1/1/1 130/130/130
f 3/3/3 2/2/2 131/131/131
f 3/3/3 131/131/131 132/132/132
f 4/4/4 3/3/3 132/132/132
f 4/4/4 132/132/132 133/133/133
f 5/5/5 4/4/4 133/133/133
f 5/5/5 133/133/133 134/134/134
f 6/6/6 5/5/5 134/134/134
f 6/6/6 134/134/134 135/135/135
f 7/7/7 6/6/6 135/135/135
f 7/7/7 135/135/135 136/136/136
f 8/8/8 7/7/7 136/136/136
f 8/8/8 136/136/136 137/137/137
f 9/9/9 8/8/8 137/137/137
f 9/9/9 137/137/137 138/138/138
f 10/10/10 9/9/9 138/138/138
f 10/10/10 138/138/138 139/139/139
f 11/11/11 10/10/10 139/139/139
f 11/11/11 139/139/139 140/140/140
f 12/12/12 11/11/11 140/140/140
f 12/12/12 140/140/140 141/141/141
f 13/13/13 12/12/12 141/141/141
f 13/13/13 141/141/141 142/142/142
f 14/14/14 13/13/13 142/142/142
f 14/14/14 142/142/142 143/143/143
f 15/15/15 14/14/14 143/143/143
f 15/15/15 143/143/143 144/144/144
f 16/16/16 15/15/15 144/144/144
f 16/16/16 144/144/144 145/145/145
f 1/1/1 16/16/16 145/145/145
f 1/1/1 145/145/145 130/130/130
