# PCF Mesh Export
# vertexCount=60  triCount=92
# materialID=350c6445

v -0.012314 -0.033294 0.085783
v 0 -0.031058 0.085588
v 0 -0.033681 0.065375
v -0.013128 -0.034747 0.065525
v -0.020837 -0.038006 0.086602
v -0.021676 -0.038831 0.066497
v -0.01868 -0.039911 0.105675
v -0.010646 -0.041608 0.119735
v -0.008445 -0.037683 0.114694
v -0.011135 -0.034978 0.103674
v 0 -0.042283 0.124387
v 0 -0.037998 0.11797
v -0.023559 -0.045398 0.085757
v -0.023119 -0.045829 0.065558
v 0 -0.052784 0.065749
v 0 -0.054434 0.085512
v -0.015275 -0.051389 0.085789
v -0.01502 -0.050137 0.066178
v -0.011327 -0.048533 0.119745
v -0.020653 -0.046693 0.105742
v -0.008515 -0.052129 0.114409
v -0.013414 -0.05206 0.103521
v 0 -0.04869 0.124389
v 0 -0.052079 0.116608
v 0 -0.033245 0.103929
v 0 -0.053613 0.10366
v 0.012315 -0.033294 0.085783
v 0.013129 -0.034747 0.065525
v 0.020837 -0.038007 0.086602
v 0.021677 -0.038831 0.066497
v 0.01868 -0.039911 0.105675
v 0.011135 -0.034978 0.103674
v 0.008446 -0.037683 0.114694
v 0.010646 -0.041608 0.119735
v 0.023559 -0.045398 0.085757
v 0.02312 -0.045829 0.065558
v 0.015021 -0.050137 0.066178
v 0.015276 -0.051389 0.085789
v 0.011327 -0.048533 0.119745
v 0.020654 -0.046693 0.105742
v 0.008516 -0.052129 0.114409
v 0.013415 -0.05206 0.103521
v 0.013455 -0.039763 0.05677
v 0.013758 -0.044745 0.056502
v -0.013454 -0.039763 0.05677
v -0.013757 -0.044745 0.056502
v 0 -0.04014 0.056748
v 0 -0.045896 0.056367
v -0.023119 -0.045829 0.065558
v -0.023559 -0.045398 0.085757
v -0.020653 -0.046693 0.105742
v -0.011327 -0.048533 0.119745
v 0 -0.04869 0.124389
v -0.013757 -0.044745 0.056502
v 0.023559 -0.045398 0.085757
v 0.02312 -0.045829 0.065558
v 0.011327 -0.048533 0.119745
v 0.020654 -0.046693 0.105742
v 0.013758 -0.044745 0.056502
v 0 -0.045896 0.056367

vn -0.314961 0.944882 0.023622
vn 0.007874 0.992126 0
vn 0.007874 0.937008 -0.338583
vn -0.267717 0.913386 -0.299213
vn -0.771654 0.629921 0.062992
vn -0.724409 0.598425 -0.330709
vn -0.748031 0.574803 0.314961
vn -0.535433 0.511811 0.661417
vn -0.267717 0.866142 0.401575
vn -0.322835 0.913386 0.220472
vn 0.007874 0.488189 0.866142
vn 0.007874 0.897638 0.425197
vn -0.937008 -0.338583 0.047244
vn -0.834646 -0.385827 -0.385827
vn 0 -0.952756 -0.322835
vn 0 -1 -0.031496
vn -0.370079 -0.929134 -0.015748
vn -0.314961 -0.905512 -0.299213
vn -0.582677 -0.472441 0.653543
vn -0.88189 -0.354331 0.291339
vn -0.259843 -0.929134 0.259843
vn -0.346457 -0.937008 0.094488
vn 0.007874 -0.543307 0.84252
vn 0 -0.968504 0.259843
vn 0.007874 0.976378 0.204724
vn 0 -1 0.03937
vn 0.322835 0.944882 0.023622
vn 0.275591 0.913386 -0.299213
vn 0.779528 0.629921 0.062992
vn 0.732283 0.598425 -0.330709
vn 0.755906 0.574803 0.314961
vn 0.330709 0.913386 0.220472
vn 0.275591 0.866142 0.401575
vn 0.543307 0.511811 0.661417
vn 0.944882 -0.338583 0.047244
vn 0.84252 -0.385827 -0.385827
vn 0.322835 -0.905512 -0.299213
vn 0.377953 -0.929134 -0.015748
vn 0.590551 -0.472441 0.653543
vn 0.889764 -0.354331 0.291339
vn 0.267717 -0.929134 0.259843
vn 0.354331 -0.937008 0.094488
vn 0.346457 0.535433 -0.771654
vn 0.377953 -0.425197 -0.826772
vn -0.338583 0.535433 -0.771654
vn -0.370079 -0.425197 -0.826772
vn 0 0.496063 -0.866142
vn 0 -0.448819 -0.897638
vn -0.834646 -0.385827 -0.385827
vn -0.937008 -0.338583 0.047244
vn -0.88189 -0.354331 0.291339
vn -0.582677 -0.472441 0.653543
vn 0.007874 -0.543307 0.84252
vn -0.370079 -0.425197 -0.826772
vn 0.944882 -0.338583 0.047244
vn 0.84252 -0.385827 -0.385827
vn 0.590551 -0.472441 0.653543
vn 0.889764 -0.354331 0.291339
vn 0.377953 -0.425197 -0.826772
vn 0 -0.448819 -0.897638

vt 0.143309 0.499117
vt 0.15264 0.499463
vt 0.152492 0.513884
vt 0.143689 0.5133
vt 0.135633 0.498603
vt 0.137196 0.5134
vt 0.138126 0.483569
vt 0.145253 0.47385
vt 0.1469 0.478739
vt 0.144429 0.486611
vt 0.153126 0.471563
vt 0.153013 0.476984
vt 0.130253 0.4989
vt 0.133478 0.515728
vt 0.152655 0.450884
vt 0.152542 0.437059
vt 0.16319 0.436996
vt 0.163105 0.451046
vt 0.142901 0.470076
vt 0.13395 0.481977
vt 0.158147 0.416517
vt 0.161563 0.424321
vt 0.153323 0.466625
vt 0.152366 0.41487
vt 0.152809 0.487393
vt 0.152436 0.42425
vt 0.162041 0.499505
vt 0.161252 0.513758
vt 0.170104 0.499217
vt 0.167893 0.514018
vt 0.168125 0.48395
vt 0.161294 0.486997
vt 0.159069 0.478935
vt 0.16102 0.474069
vt 0.175738 0.499653
vt 0.171773 0.516567
vt 0.142246 0.45117
vt 0.141965 0.437201
vt 0.163822 0.470027
vt 0.172625 0.482449
vt 0.146591 0.416638
vt 0.143345 0.424524
vt 0.161407 0.521201
vt 0.162372 0.524329
vt 0.142911 0.520651
vt 0.142076 0.523643
vt 0.152406 0.522082
vt 0.152732 0.45953
vt 0.169196 0.45208
vt 0.170154 0.437356
vt 0.167302 0.422439
vt 0.160274 0.412144
vt 0.152288 0.40923
vt 0.162781 0.45934
vt 0.135092 0.437666
vt 0.136268 0.452312
vt 0.144437 0.412342
vt 0.137641 0.42277
vt 0.14269 0.459416
vt 0.152341 0.525897

f 1/1/1 3/3/3 4/4/4
f 1/1/1 2/2/2 3/3/3
f 5/5/5 1/1/1 4/4/4
f 5/5/5 4/4/4 6/6/6
f 13/13/13 5/5/5 6/6/6
f 13/13/13 6/6/6 14/14/14
f 1/1/1 25/25/25 2/2/2
f 1/1/1 10/10/10 25/25/25
f 5/5/5 10/10/10 1/1/1
f 25/25/25 10/10/10 9/9/9
f 7/7/7 9/9/9 10/10/10
f 5/5/5 7/7/7 10/10/10
f 13/13/13 7/7/7 5/5/5
f 7/7/7 8/8/8 9/9/9
f 11/11/11 9/9/9 8/8/8
f 11/11/11 12/12/12 9/9/9
f 25/25/25 9/9/9 12/12/12
f 19/19/19 8/8/8 7/7/7
f 19/19/19 7/7/7 20/20/20
f 13/13/13 20/20/20 7/7/7
f 23/23/23 8/8/8 19/19/19
f 23/23/23 11/11/11 8/8/8
f 46/46/46 14/14/14 6/6/6
f 46/46/46 6/6/6 45/45/45
f 45/45/45 6/6/6 4/4/4
f 3/3/3 45/45/45 4/4/4
f 3/3/3 47/47/47 45/45/45
f 11/11/11 33/33/33 12/12/12
f 25/25/25 12/12/12 33/33/33
f 11/11/11 34/34/34 33/33/33
f 23/23/23 34/34/34 11/11/11
f 31/31/31 33/33/33 34/34/34
f 31/31/31 32/32/32 33/33/33
f 39/39/39 31/31/31 34/34/34
f 23/23/23 39/39/39 34/34/34
f 39/39/39 40/40/40 31/31/31
f 25/25/25 33/33/33 32/32/32
f 27/27/27 25/25/25 32/32/32
f 27/27/27 3/3/3 2/2/2
f 27/27/27 2/2/2 25/25/25
f 27/27/27 28/28/28 3/3/3
f 29/29/29 28/28/28 27/27/27
f 29/29/29 32/32/32 31/31/31
f 29/29/29 27/27/27 32/32/32
f 29/29/29 30/30/30 28/28/28
f 35/35/35 30/30/30 29/29/29
f 35/35/35 31/31/31 40/40/40
f 35/35/35 29/29/29 31/31/31
f 35/35/35 36/36/36 30/30/30
f 43/43/43 28/28/28 30/30/30
f 44/44/44 30/30/30 36/36/36
f 44/44/44 43/43/43 30/30/30
f 3/3/3 28/28/28 43/43/43
f 3/3/3 43/43/43 47/47/47
f 47/47/47 43/43/43 44/44/44
f 47/47/47 44/44/44 60/60/60
f 45/45/45 47/47/47 60/60/60
f 45/45/45 60/60/60 46/46/46
f 15/15/15 17/17/17 18/18/18
f 15/15/15 16/16/16 17/17/17
f 17/17/17 49/49/49 18/18/18
f 17/17/17 50/50/50 49/49/49
f 22/22/22 17/17/17 16/16/16
f 22/22/22 16/16/16 26/26/26
f 17/17/17 51/51/51 50/50/50
f 17/17/17 22/22/22 51/51/51
f 21/21/21 51/51/51 22/22/22
f 21/21/21 52/52/52 51/51/51
f 24/24/24 52/52/52 21/21/21
f 22/22/22 24/24/24 21/21/21
f 22/22/22 26/26/26 24/24/24
f 24/24/24 53/53/53 52/52/52
f 54/54/54 18/18/18 49/49/49
f 48/48/48 18/18/18 54/54/54
f 48/48/48 15/15/15 18/18/18
f 15/15/15 38/38/38 16/16/16
f 15/15/15 37/37/37 38/38/38
f 38/38/38 37/37/37 56/56/56
f 38/38/38 56/56/56 55/55/55
f 24/24/24 57/57/57 53/53/53
f 24/24/24 41/41/41 57/57/57
f 41/41/41 58/58/58 57/57/57
f 38/38/38 55/55/55 58/58/58
f 41/41/41 42/42/42 58/58/58
f 38/38/38 58/58/58 42/42/42
f 42/42/42 24/24/24 26/26/26
f 42/42/42 41/41/41 24/24/24
f 42/42/42 16/16/16 38/38/38
f 42/42/42 26/26/26 16/16/16
f 59/59/59 56/56/56 37/37/37
f 48/48/48 59/59/59 37/37/37
f 48/48/48 37/37/37 15/15/15
