# PCF Mesh Export
# vertexCount=60  triCount=92
# materialID=ba89e8f3

v -0.012314 -0.033294 0.085783
v -0.013128 -0.034747 0.065525
v 0 -0.033681 0.065375
v 0 -0.031058 0.085588
v -0.020837 -0.038006 0.086602
v -0.021676 -0.038831 0.066497
v -0.023559 -0.045398 0.085757
v -0.023119 -0.045829 0.065558
v 0 -0.033245 0.103929
v -0.011135 -0.034978 0.103674
v -0.008445 -0.037683 0.114694
v -0.01868 -0.039911 0.105675
v -0.010646 -0.041608 0.119735
v 0 -0.042283 0.124387
v 0 -0.037998 0.11797
v -0.011327 -0.048533 0.119745
v -0.020653 -0.046693 0.105742
v 0 -0.04869 0.124389
v -0.013757 -0.044745 0.056502
v -0.013454 -0.039763 0.05677
v 0 -0.04014 0.056748
v 0.008446 -0.037683 0.114694
v 0.010646 -0.041608 0.119735
v 0.01868 -0.039911 0.105675
v 0.011135 -0.034978 0.103674
v 0.011327 -0.048533 0.119745
v 0.020654 -0.046693 0.105742
v 0.012315 -0.033294 0.085783
v 0.013129 -0.034747 0.065525
v 0.020837 -0.038007 0.086602
v 0.021677 -0.038831 0.066497
v 0.023559 -0.045398 0.085757
v 0.02312 -0.045829 0.065558
v 0.013455 -0.039763 0.05677
v 0.013758 -0.044745 0.056502
v 0 -0.045896 0.056367
v 0 -0.052784 0.065749
v -0.01502 -0.050137 0.066178
v -0.015275 -0.051389 0.085789
v 0 -0.054434 0.085512
v -0.023119 -0.045829 0.065558
v -0.023559 -0.045398 0.085757
v -0.013414 -0.05206 0.103521
v 0 -0.053613 0.10366
v -0.020653 -0.046693 0.105742
v -0.008515 -0.052129 0.114409
v -0.011327 -0.048533 0.119745
v 0 -0.052079 0.116608
v 0 -0.04869 0.124389
v -0.013757 -0.044745 0.056502
v 0 -0.045896 0.056367
v 0.015276 -0.051389 0.085789
v 0.015021 -0.050137 0.066178
v 0.02312 -0.045829 0.065558
v 0.023559 -0.045398 0.085757
v 0.011327 -0.048533 0.119745
v 0.008516 -0.052129 0.114409
v 0.020654 -0.046693 0.105742
v 0.013415 -0.05206 0.103521
v 0.013758 -0.044745 0.056502

vn -0.314961 0.944882 0.023622
vn -0.267717 0.913386 -0.299213
vn 0.007874 0.937008 -0.338583
vn 0.007874 0.992126 0
vn -0.771654 0.629921 0.062992
vn -0.724409 0.598425 -0.330709
vn -0.937008 -0.338583 0.047244
vn -0.834646 -0.385827 -0.385827
vn 0.007874 0.976378 0.204724
vn -0.322835 0.913386 0.220472
vn -0.267717 0.866142 0.401575
vn -0.748031 0.574803 0.314961
vn -0.535433 0.511811 0.661417
vn 0.007874 0.488189 0.866142
vn 0.007874 0.897638 0.425197
vn -0.582677 -0.472441 0.653543
vn -0.88189 -0.354331 0.291339
vn 0.007874 -0.543307 0.84252
vn -0.370079 -0.425197 -0.826772
vn -0.338583 0.535433 -0.771654
vn 0 0.496063 -0.866142
vn 0.275591 0.866142 0.401575
vn 0.543307 0.511811 0.661417
vn 0.755906 0.574803 0.314961
vn 0.330709 0.913386 0.220472
vn 0.590551 -0.472441 0.653543
vn 0.889764 -0.354331 0.291339
vn 0.322835 0.944882 0.023622
vn 0.275591 0.913386 -0.299213
vn 0.779528 0.629921 0.062992
vn 0.732283 0.598425 -0.330709
vn 0.944882 -0.338583 0.047244
vn 0.84252 -0.385827 -0.385827
vn 0.346457 0.535433 -0.771654
vn 0.377953 -0.425197 -0.826772
vn 0 -0.448819 -0.897638
vn 0 -0.952756 -0.322835
vn -0.314961 -0.905512 -0.299213
vn -0.370079 -0.929134 -0.015748
vn 0 -1 -0.031496
vn -0.834646 -0.385827 -0.385827
vn -0.937008 -0.338583 0.047244
vn -0.346457 -0.937008 0.094488
vn 0 -1 0.03937
vn -0.88189 -0.354331 0.291339
vn -0.259843 -0.929134 0.259843
vn -0.582677 -0.472441 0.653543
vn 0 -0.968504 0.259843
vn 0.007874 -0.543307 0.84252
vn -0.370079 -0.425197 -0.826772
vn 0 -0.448819 -0.897638
vn 0.377953 -0.929134 -0.015748
vn 0.322835 -0.905512 -0.299213
vn 0.84252 -0.385827 -0.385827
vn 0.944882 -0.338583 0.047244
vn 0.590551 -0.472441 0.653543
vn 0.267717 -0.929134 0.259843
vn 0.889764 -0.354331 0.291339
vn 0.354331 -0.937008 0.094488
vn 0.377953 -0.425197 -0.826772

vt 0.136583 0.488731
vt 0.136962 0.502914
vt 0.145766 0.503498
vt 0.145914 0.489077
vt 0.128907 0.488217
vt 0.13047 0.503014
vt 0.123527 0.488514
vt 0.126751 0.505343
vt 0.146082 0.477007
vt 0.137702 0.476225
vt 0.140174 0.468353
vt 0.1314 0.473183
vt 0.138527 0.463465
vt 0.1464 0.461177
vt 0.146286 0.466598
vt 0.136175 0.459691
vt 0.127223 0.471591
vt 0.146597 0.456239
vt 0.135349 0.513257
vt 0.136184 0.510265
vt 0.14568 0.511696
vt 0.152343 0.468549
vt 0.154294 0.463684
vt 0.161399 0.473564
vt 0.154568 0.476612
vt 0.157096 0.459641
vt 0.165898 0.472063
vt 0.155315 0.489119
vt 0.154526 0.503372
vt 0.163378 0.488831
vt 0.161166 0.503632
vt 0.169012 0.489267
vt 0.165047 0.506181
vt 0.15468 0.510815
vt 0.155646 0.513943
vt 0.145615 0.515511
vt 0.145928 0.440498
vt 0.156379 0.44066
vt 0.156463 0.42661
vt 0.145816 0.426673
vt 0.16247 0.441694
vt 0.163428 0.42697
vt 0.154837 0.413935
vt 0.14571 0.413864
vt 0.160576 0.412054
vt 0.15142 0.406131
vt 0.153548 0.401758
vt 0.14564 0.404484
vt 0.145562 0.398844
vt 0.156055 0.448954
vt 0.146005 0.449144
vt 0.135238 0.426815
vt 0.13552 0.440785
vt 0.129542 0.441926
vt 0.128366 0.42728
vt 0.137711 0.401956
vt 0.139864 0.406252
vt 0.130914 0.412385
vt 0.136619 0.414138
vt 0.135964 0.449031

f 1/1/1 3/3/3 2/2/2
f 1/1/1 4/4/4 3/3/3
f 5/5/5 1/1/1 2/2/2
f 5/5/5 2/2/2 6/6/6
f 7/7/7 5/5/5 6/6/6
f 7/7/7 6/6/6 8/8/8
f 1/1/1 9/9/9 4/4/4
f 1/1/1 10/10/10 9/9/9
f 5/5/5 10/10/10 1/1/1
f 9/9/9 10/10/10 11/11/11
f 12/12/12 11/11/11 10/10/10
f 5/5/5 12/12/12 10/10/10
f 7/7/7 12/12/12 5/5/5
f 12/12/12 13/13/13 11/11/11
f 14/14/14 11/11/11 13/13/13
f 14/14/14 15/15/15 11/11/11
f 9/9/9 11/11/11 15/15/15
f 16/16/16 13/13/13 12/12/12
f 16/16/16 12/12/12 17/17/17
f 7/7/7 17/17/17 12/12/12
f 18/18/18 13/13/13 16/16/16
f 18/18/18 14/14/14 13/13/13
f 19/19/19 8/8/8 6/6/6
f 19/19/19 6/6/6 20/20/20
f 20/20/20 6/6/6 2/2/2
f 3/3/3 20/20/20 2/2/2
f 3/3/3 21/21/21 20/20/20
f 14/14/14 22/22/22 15/15/15
f 9/9/9 15/15/15 22/22/22
f 14/14/14 23/23/23 22/22/22
f 18/18/18 23/23/23 14/14/14
f 24/24/24 22/22/22 23/23/23
f 24/24/24 25/25/25 22/22/22
f 26/26/26 24/24/24 23/23/23
f 18/18/18 26/26/26 23/23/23
f 26/26/26 27/27/27 24/24/24
f 9/9/9 22/22/22 25/25/25
f 28/28/28 9/9/9 25/25/25
f 28/28/28 3/3/3 4/4/4
f 28/28/28 4/4/4 9/9/9
f 28/28/28 29/29/29 3/3/3
f 30/30/30 29/29/29 28/28/28
f 30/30/30 25/25/25 24/24/24
f 30/30/30 28/28/28 25/25/25
f 30/30/30 31/31/31 29/29/29
f 32/32/32 31/31/31 30/30/30
f 32/32/32 24/24/24 27/27/27
f 32/32/32 30/30/30 24/24/24
f 32/32/32 33/33/33 31/31/31
f 34/34/34 29/29/29 31/31/31
f 35/35/35 31/31/31 33/33/33
f 35/35/35 34/34/34 31/31/31
f 3/3/3 29/29/29 34/34/34
f 3/3/3 34/34/34 21/21/21
f 21/21/21 34/34/34 35/35/35
f 21/21/21 35/35/35 36/36/36
f 20/20/20 21/21/21 36/36/36
f 20/20/20 36/36/36 19/19/19
f 37/37/37 39/39/39 38/38/38
f 37/37/37 40/40/40 39/39/39
f 39/39/39 41/41/41 38/38/38
f 39/39/39 42/42/42 41/41/41
f 43/43/43 39/39/39 40/40/40
f 43/43/43 40/40/40 44/44/44
f 39/39/39 45/45/45 42/42/42
f 39/39/39 43/43/43 45/45/45
f 46/46/46 45/45/45 43/43/43
f 46/46/46 47/47/47 45/45/45
f 48/48/48 47/47/47 46/46/46
f 43/43/43 48/48/48 46/46/46
f 43/43/43 44/44/44 48/48/48
f 48/48/48 49/49/49 47/47/47
f 50/50/50 38/38/38 41/41/41
f 51/51/51 38/38/38 50/50/50
f 51/51/51 37/37/37 38/38/38
f 37/37/37 52/52/52 40/40/40
f 37/37/37 53/53/53 52/52/52
f 52/52/52 53/53/53 54/54/54
f 52/52/52 54/54/54 55/55/55
f 48/48/48 56/56/56 49/49/49
f 48/48/48 57/57/57 56/56/56
f 57/57/57 58/58/58 56/56/56
f 52/52/52 55/55/55 58/58/58
f 57/57/57 59/59/59 58/58/58
f 52/52/52 58/58/58 59/59/59
f 59/59/59 48/48/48 44/44/44
f 59/59/59 57/57/57 48/48/48
f 59/59/59 40/40/40 52/52/52
f 59/59/59 44/44/44 40/40/40
f 60/60/60 54/54/54 53/53/53
f 51/51/51 60/60/60 53/53/53
f 51/51/51 53/53/53 37/37/37
