# PCF Mesh Export
# vertexCount=17  triCount=16
# materialID=e904b8af

v 2.96309 0 5.487553
v 2.96309 0 4.43157
v 1.536839 0 4.43157
v 1.536839 0 5.524588
v -0.528371 0 5.487553
v -0.56542 0 0.531087
v -0.56542 0 0.037
v -5.962999 0 0.037
v -5.962999 0 0.494051
v -5.962999 0 5.487553
v -5.962999 0 6.991461
v -0.528371 0 6.991461
v 0.000122 0 6.991461
v 2.96309 0 6.991461
v -0.036927 0 5.524588
v -0.036927 0 0.531087
v 1.49979 0 6.991461

vn 0 1 0
vn 0 1 0
vn 0 1 0
vn 0 1 0
vn 0 1 0
vn 0 1 0
vn 0 1 0
vn 0 1 0
vn 0 1 0
vn 0 1 0
vn 0 1 0
vn 0 1 0
vn 0 1 0
vn 0 1 0
vn 0 1 0
vn 0 1 0
vn 0 1 0

vt 0.624319 0.32544
vt 0.681371 0.32544
vt 0.681371 0.389582
vt 0.624319 0.389582
vt 0.624319 0.458278
vt 0.894108 0.458278
vt 0.920809 0.458278
vt 0.920809 0.753901
vt 0.894108 0.753901
vt 0.624319 0.753901
vt 0.54107 0.753901
vt 0.54107 0.458278
vt 0.54107 0.429726
vt 0.54107 0.32544
vt 0.624319 0.429726
vt 0.894108 0.429726
vt 0.54107 0.389582

f 4/4/4 1/1/1 2/2/2
f 4/4/4 2/2/2 3/3/3
f 17/17/17 1/1/1 4/4/4
f 17/17/17 14/14/14 1/1/1
f 13/13/13 17/17/17 4/4/4
f 13/13/13 4/4/4 15/15/15
f 5/5/5 13/13/13 15/15/15
f 5/5/5 12/12/12 13/13/13
f 10/10/10 12/12/12 5/5/5
f 10/10/10 11/11/11 12/12/12
f 6/6/6 10/10/10 5/5/5
f 6/6/6 9/9/9 10/10/10
f 7/7/7 9/9/9 6/6/6
f 7/7/7 8/8/8 9/9/9
f 16/16/16 6/6/6 5/5/5
f 16/16/16 5/5/5 15/15/15
