# PCF Mesh Export
# vertexCount=124  triCount=186
# materialID=ba89e8f3

v -0.031614 -0.023206 0.112635
v -0.030745 -0.034228 0.111993
v -0.034214 -0.034229 0.098436
v -0.035717 -0.023119 0.099423
v -0.035223 -0.007007 0.099549
v -0.031325 -0.006916 0.112579
v -0.025698 -0.02337 0.123548
v -0.024898 -0.034753 0.123238
v -0.023368 -0.034426 0.123804
v -0.02376 -0.025758 0.124288
v -0.023042 -0.023117 0.126305
v -0.022763 -0.035116 0.125344
v -0.014881 -0.035589 0.131586
v -0.015814 -0.022823 0.13203
v -0.013291 -0.034601 0.131847
v -0.013546 -0.025358 0.132332
v -0.011802 -0.022946 0.133772
v -0.011554 -0.035588 0.132676
v -0.002342 -0.035608 0.134679
v -0.002765 -0.022711 0.135768
v 1e-06 -0.034966 0.133796
v 1e-06 -0.026334 0.134133
v 1e-06 -0.007178 0.135094
v 1e-06 -0.022579 0.136017
v 1e-06 -0.026334 0.134133
v -0.012429 -0.007048 0.132346
v -0.024233 -0.007131 0.124242
v 1e-06 -0.034954 0.13117
v -0.001833 -0.035609 0.13063
v -0.010912 -0.035594 0.128823
v -0.012011 -0.034605 0.128612
v -0.013404 -0.035597 0.127995
v -0.011596 -0.028285 0.127512
v -0.019966 -0.034761 0.122616
v -0.021191 -0.034422 0.121959
v -0.021841 -0.034768 0.120515
v -0.020025 -0.027709 0.120685
v -0.027225 -0.034232 0.110979
v -0.029567 -0.034247 0.098065
v -0.035052 -0.034231 0.084891
v -0.02996 -0.034227 0.085256
v -0.02611 -0.029056 0.110526
v -0.028301 -0.028079 0.097723
v 1e-06 -0.023502 0.123728
v -0.017832 -0.02392 0.117454
v -0.023078 -0.023428 0.102853
v -0.029884 -0.027059 0.084032
v -0.023096 -0.021879 0.084276
v -0.03532 -0.026093 0.084792
v -0.036855 -0.022675 0.08463
v -0.034431 -0.019079 0.076883
v -0.023424 -0.017854 0.077764
v -0.036678 -0.007201 0.084533
v -0.035361 -0.007184 0.076871
v 1e-06 -0.029035 0.129221
v -0.023096 -0.021879 0.084276
v -0.023078 -0.023428 0.102853
v 1e-06 -0.017749 0.10307
v 1e-06 -0.014968 0.078911
v -0.023424 -0.017854 0.077764
v 1e-06 -0.023502 0.123728
v -0.017832 -0.02392 0.117454
v 0.031615 -0.023206 0.112635
v 0.035718 -0.023119 0.099423
v 0.034215 -0.034229 0.098436
v 0.030747 -0.034228 0.111993
v 0.035224 -0.007007 0.099549
v 0.031326 -0.006916 0.112579
v 0.025699 -0.02337 0.123548
v 0.024899 -0.034753 0.123238
v 0.023369 -0.034426 0.123804
v 0.023761 -0.025758 0.124288
v 0.023043 -0.023117 0.126305
v 0.022764 -0.035116 0.125344
v 0.014882 -0.035589 0.131586
v 0.015816 -0.022823 0.13203
v 0.013292 -0.034601 0.131847
v 0.013547 -0.025358 0.132332
v 0.011804 -0.022946 0.133772
v 0.011555 -0.035588 0.132676
v 0.002343 -0.035608 0.134679
v 0.002766 -0.022711 0.135768
v 1e-06 -0.034966 0.133796
v 1e-06 -0.026334 0.134133
v 1e-06 -0.007178 0.135094
v 1e-06 -0.022579 0.136017
v 1e-06 -0.026334 0.134133
v 0.01243 -0.007048 0.132346
v 0.024234 -0.007131 0.124242
v 1e-06 -0.034954 0.13117
v 0.001834 -0.035609 0.13063
v 0.010912 -0.035594 0.128823
v 0.012012 -0.034605 0.128612
v 0.013405 -0.035597 0.127995
v 0.011597 -0.028285 0.127512
v 0.019967 -0.034761 0.122616
v 0.021192 -0.034422 0.121959
v 0.021842 -0.034768 0.120515
v 0.020027 -0.027709 0.120685
v 0.027226 -0.034232 0.110979
v 0.029568 -0.034247 0.098065
v 0.035053 -0.034231 0.084891
v 0.029961 -0.034227 0.085256
v 0.026111 -0.029056 0.110526
v 0.028302 -0.028079 0.097723
v 1e-06 -0.023502 0.123728
v 1e-06 -0.029035 0.129221
v 0.017833 -0.02392 0.117454
v 0.023079 -0.023428 0.102853
v 0.029885 -0.027059 0.084032
v 0.023097 -0.021879 0.084276
v 0.035321 -0.026093 0.084792
v 0.036855 -0.022675 0.08463
v 0.034432 -0.019079 0.076883
v 0.023426 -0.017854 0.077764
v 0.03668 -0.007201 0.084533
v 0.035361 -0.007184 0.076871
v 1e-06 -0.017749 0.10307
v 1e-06 -0.023502 0.123728
v 0.017833 -0.02392 0.117454
v 0.023079 -0.023428 0.102853
v 0.023097 -0.021879 0.084276
v 1e-06 -0.014968 0.078911
v 0.023426 -0.017854 0.077764

vn -0.92126 -0.03937 0.377953
vn -0.622047 -0.748031 0.228346
vn -0.653543 -0.748031 0.094488
vn -0.976378 -0.11811 0.141732
vn -0.976378 0.015748 0.188976
vn -0.913386 0.023622 0.393701
vn -0.724409 -0.086614 0.669291
vn -0.393701 -0.748031 0.527559
vn -0.496063 -0.755906 0.433071
vn -0.692913 -0.165354 0.692913
vn -0.724409 -0.070866 0.677165
vn -0.622047 -0.732283 0.275591
vn -0.110236 -0.716535 0.685039
vn -0.440945 -0.047244 0.889764
vn -0.259843 -0.669291 0.692913
vn -0.362205 -0.125984 0.92126
vn -0.346457 -0.055118 0.929134
vn -0.433071 -0.692913 0.574803
vn 0.181102 -0.732283 0.661417
vn -0.031496 -0.094488 0.992126
vn 0.007874 -0.740157 0.677165
vn 0 -0.267717 0.96063
vn 0 0.062992 0.992126
vn 0 -0.204724 0.976378
vn 0 -0.267717 0.96063
vn -0.401575 0.070866 0.905512
vn -0.732283 0.047244 0.669291
vn 0.007874 -0.826772 -0.574803
vn 0.259843 -0.779528 -0.582677
vn -0.110236 -0.724409 -0.685039
vn 0.188976 -0.748031 -0.645669
vn 0.511811 -0.716535 -0.480315
vn 0.291339 -0.417323 -0.866142
vn 0.251969 -0.748031 -0.629921
vn 0.425197 -0.795276 -0.448819
vn 0.598425 -0.771654 -0.228346
vn 0.677165 -0.440945 -0.606299
vn 0.582677 -0.787402 -0.228346
vn 0.645669 -0.76378 -0.086614
vn -0.559055 -0.645669 -0.527559
vn 0.511811 -0.645669 -0.582677
vn 0.84252 -0.464567 -0.299213
vn 0.88189 -0.456693 -0.141732
vn 0 -0.874016 -0.496063
vn 0.385827 -0.866142 -0.346457
vn 0.519685 -0.84252 -0.181102
vn 0.440945 -0.614173 -0.661417
vn 0.354331 -0.858268 -0.377953
vn -0.748031 -0.425197 -0.511811
vn -0.96063 -0.212598 -0.141732
vn -0.535433 -0.566929 -0.637795
vn 0.212598 -0.76378 -0.614173
vn -0.992126 -0.007874 -0.07874
vn -0.968504 -0.031496 -0.244094
vn 0.007874 -0.425197 -0.913386
vn 0.354331 -0.858268 -0.377953
vn 0.519685 -0.84252 -0.181102
vn 0 -0.992126 -0.15748
vn 0 -0.952756 -0.330709
vn 0.212598 -0.76378 -0.614173
vn 0 -0.874016 -0.496063
vn 0.385827 -0.866142 -0.346457
vn 0.929134 -0.03937 0.377953
vn 0.984252 -0.11811 0.141732
vn 0.661417 -0.748031 0.094488
vn 0.629921 -0.748031 0.228346
vn 0.984252 0.015748 0.188976
vn 0.92126 0.023622 0.393701
vn 0.732283 -0.086614 0.669291
vn 0.401575 -0.748031 0.527559
vn 0.503937 -0.755906 0.433071
vn 0.700787 -0.165354 0.692913
vn 0.732283 -0.070866 0.677165
vn 0.629921 -0.732283 0.275591
vn 0.11811 -0.716535 0.685039
vn 0.448819 -0.047244 0.889764
vn 0.267717 -0.669291 0.692913
vn 0.370079 -0.125984 0.92126
vn 0.354331 -0.055118 0.929134
vn 0.440945 -0.692913 0.574803
vn -0.173228 -0.732283 0.661417
vn 0.03937 -0.094488 0.992126
vn 0.007874 -0.740157 0.677165
vn 0 -0.267717 0.96063
vn 0 0.062992 0.992126
vn 0 -0.204724 0.976378
vn 0 -0.267717 0.96063
vn 0.409449 0.070866 0.905512
vn 0.740157 0.047244 0.669291
vn 0.007874 -0.826772 -0.574803
vn -0.251969 -0.779528 -0.582677
vn 0.11811 -0.724409 -0.685039
vn -0.181102 -0.748031 -0.645669
vn -0.503937 -0.716535 -0.480315
vn -0.283465 -0.417323 -0.866142
vn -0.244094 -0.748031 -0.629921
vn -0.417323 -0.795276 -0.448819
vn -0.590551 -0.771654 -0.228346
vn -0.669291 -0.440945 -0.606299
vn -0.574803 -0.787402 -0.228346
vn -0.637795 -0.76378 -0.086614
vn 0.566929 -0.645669 -0.527559
vn -0.503937 -0.645669 -0.582677
vn -0.834646 -0.464567 -0.299213
vn -0.874016 -0.456693 -0.141732
vn 0 -0.874016 -0.496063
vn 0.007874 -0.425197 -0.913386
vn -0.377953 -0.866142 -0.346457
vn -0.511811 -0.84252 -0.181102
vn -0.433071 -0.614173 -0.661417
vn -0.346457 -0.858268 -0.377953
vn 0.755906 -0.425197 -0.511811
vn 0.968504 -0.212598 -0.141732
vn 0.543307 -0.566929 -0.637795
vn -0.204724 -0.76378 -0.614173
vn 1 -0.007874 -0.07874
vn 0.976378 -0.031496 -0.244094
vn 0 -0.992126 -0.15748
vn 0 -0.874016 -0.496063
vn -0.377953 -0.866142 -0.346457
vn -0.511811 -0.84252 -0.181102
vn -0.346457 -0.858268 -0.377953
vn 0 -0.952756 -0.330709
vn -0.204724 -0.76378 -0.614173

vt 0.072513 0.495546
vt 0.072513 0.482693
vt 0.086856 0.482693
vt 0.086856 0.495546
vt 0.086856 0.516157
vt 0.072513 0.516158
vt 0.053971 0.495546
vt 0.053971 0.482693
vt 0.050846 0.482693
vt 0.050846 0.491878
vt 0.048024 0.495546
vt 0.048024 0.482693
vt 0.032088 0.482693
vt 0.032088 0.495546
vt 0.028813 0.482693
vt 0.028813 0.492094
vt 0.025694 0.495546
vt 0.025694 0.482693
vt 0.011677 0.482693
vt 0.011677 0.495546
vt 0.007786 0.482693
vt 0.007786 0.489678
vt 0.007786 0.516157
vt 0.007786 0.495546
vt 0.007786 0.489678
vt 0.028891 0.516157
vt 0.050846 0.516158
vt 0.007786 0.477872
vt 0.011677 0.477872
vt 0.025694 0.477872
vt 0.028813 0.477872
vt 0.032088 0.477872
vt 0.028813 0.470801
vt 0.048024 0.477872
vt 0.050846 0.477872
vt 0.053971 0.477872
vt 0.050846 0.470801
vt 0.072513 0.477872
vt 0.086856 0.477872
vt 0.094278 0.482693
vt 0.09395 0.477872
vt 0.072513 0.470801
vt 0.086856 0.470801
vt 0.007786 0.460703
vt 0.055544 0.460703
vt 0.081318 0.460703
vt 0.100854 0.470801
vt 0.103106 0.460703
vt 0.10086 0.489897
vt 0.101562 0.495546
vt 0.11632 0.495546
vt 0.11632 0.460703
vt 0.101234 0.516158
vt 0.11632 0.516157
vt 0.007786 0.470801
vt 0.19603 0.416781
vt 0.194725 0.431472
vt 0.174061 0.433555
vt 0.174063 0.410579
vt 0.196534 0.409515
vt 0.174069 0.453233
vt 0.192807 0.442772
vt 0.072513 0.495546
vt 0.086856 0.495546
vt 0.086856 0.482693
vt 0.072513 0.482693
vt 0.086856 0.516157
vt 0.072513 0.516157
vt 0.053971 0.495546
vt 0.053971 0.482693
vt 0.050846 0.482693
vt 0.050846 0.491878
vt 0.048024 0.495546
vt 0.048024 0.482693
vt 0.032088 0.482693
vt 0.032088 0.495546
vt 0.028813 0.482693
vt 0.028813 0.492094
vt 0.025694 0.495546
vt 0.025694 0.482693
vt 0.011677 0.482693
vt 0.011677 0.495546
vt 0.007786 0.482693
vt 0.007786 0.489678
vt 0.007786 0.516157
vt 0.007786 0.495546
vt 0.007786 0.489678
vt 0.028891 0.516157
vt 0.050846 0.516158
vt 0.007786 0.477872
vt 0.011677 0.477872
vt 0.025694 0.477872
vt 0.028813 0.477872
vt 0.032088 0.477872
vt 0.028813 0.470801
vt 0.048024 0.477872
vt 0.050846 0.477872
vt 0.053971 0.477872
vt 0.050846 0.470801
vt 0.072513 0.477872
vt 0.086856 0.477872
vt 0.094278 0.482693
vt 0.09395 0.477872
vt 0.072513 0.470801
vt 0.086856 0.470801
vt 0.007786 0.460703
vt 0.007786 0.470801
vt 0.055544 0.460703
vt 0.081318 0.460703
vt 0.100854 0.470801
vt 0.103106 0.460703
vt 0.10086 0.489897
vt 0.101562 0.495546
vt 0.11632 0.495546
vt 0.11632 0.460703
vt 0.101234 0.516158
vt 0.11632 0.516157
vt 0.174061 0.433555
vt 0.174063 0.453219
vt 0.192813 0.442755
vt 0.194751 0.431475
vt 0.19603 0.416781
vt 0.174063 0.410579
vt 0.196534 0.409515

f 1/1/1 3/3/3 2/2/2
f 1/1/1 4/4/4 3/3/3
f 1/1/1 5/5/5 4/4/4
f 1/1/1 6/6/6 5/5/5
f 7/7/7 1/1/1 2/2/2
f 7/7/7 6/6/6 1/1/1
f 7/7/7 2/2/2 8/8/8
f 7/7/7 8/8/8 9/9/9
f 7/7/7 9/9/9 10/10/10
f 11/11/11 7/7/7 10/10/10
f 11/11/11 10/10/10 9/9/9
f 11/11/11 9/9/9 12/12/12
f 11/11/11 12/12/12 13/13/13
f 11/11/11 13/13/13 14/14/14
f 14/14/14 13/13/13 15/15/15
f 14/14/14 15/15/15 16/16/16
f 17/17/17 16/16/16 15/15/15
f 17/17/17 14/14/14 16/16/16
f 17/17/17 15/15/15 18/18/18
f 19/19/19 17/17/17 18/18/18
f 19/19/19 20/20/20 17/17/17
f 21/21/21 20/20/20 19/19/19
f 21/21/21 22/22/22 20/20/20
f 23/23/23 17/17/17 20/20/20
f 23/23/23 20/20/20 24/24/24
f 24/24/24 20/20/20 25/25/25
f 23/23/23 26/26/26 17/17/17
f 26/26/26 11/11/11 14/14/14
f 17/17/17 26/26/26 14/14/14
f 26/26/26 27/27/27 11/11/11
f 19/19/19 28/28/28 21/21/21
f 19/19/19 29/29/29 28/28/28
f 18/18/18 29/29/29 19/19/19
f 18/18/18 30/30/30 29/29/29
f 31/31/31 18/18/18 15/15/15
f 31/31/31 30/30/30 18/18/18
f 13/13/13 31/31/31 15/15/15
f 13/13/13 32/32/32 31/31/31
f 32/32/32 33/33/33 31/31/31
f 33/33/33 30/30/30 31/31/31
f 12/12/12 32/32/32 13/13/13
f 12/12/12 34/34/34 32/32/32
f 34/34/34 33/33/33 32/32/32
f 9/9/9 34/34/34 12/12/12
f 9/9/9 35/35/35 34/34/34
f 35/35/35 9/9/9 8/8/8
f 35/35/35 8/8/8 36/36/36
f 37/37/37 35/35/35 36/36/36
f 34/34/34 37/37/37 33/33/33
f 35/35/35 37/37/37 34/34/34
f 2/2/2 36/36/36 8/8/8
f 2/2/2 38/38/38 36/36/36
f 38/38/38 37/37/37 36/36/36
f 3/3/3 38/38/38 2/2/2
f 3/3/3 39/39/39 38/38/38
f 39/39/39 3/3/3 40/40/40
f 39/39/39 40/40/40 41/41/41
f 38/38/38 42/42/42 37/37/37
f 39/39/39 42/42/42 38/38/38
f 39/39/39 43/43/43 42/42/42
f 37/37/37 44/44/44 33/33/33
f 37/37/37 45/45/45 44/44/44
f 42/42/42 45/45/45 37/37/37
f 42/42/42 46/46/46 45/45/45
f 43/43/43 46/46/46 42/42/42
f 47/47/47 39/39/39 41/41/41
f 47/47/47 43/43/43 39/39/39
f 47/47/47 46/46/46 43/43/43
f 40/40/40 47/47/47 41/41/41
f 47/47/47 48/48/48 46/46/46
f 40/40/40 49/49/49 47/47/47
f 4/4/4 40/40/40 3/3/3
f 4/4/4 49/49/49 40/40/40
f 50/50/50 49/49/49 4/4/4
f 49/49/49 51/51/51 47/47/47
f 50/50/50 51/51/51 49/49/49
f 47/47/47 52/52/52 48/48/48
f 47/47/47 51/51/51 52/52/52
f 53/53/53 50/50/50 4/4/4
f 53/53/53 51/51/51 50/50/50
f 53/53/53 4/4/4 5/5/5
f 53/53/53 54/54/54 51/51/51
f 33/33/33 44/44/44 55/55/55
f 30/30/30 33/33/33 55/55/55
f 30/30/30 55/55/55 29/29/29
f 29/29/29 55/55/55 28/28/28
f 7/7/7 27/27/27 6/6/6
f 11/11/11 27/27/27 7/7/7
f 56/56/56 58/58/58 57/57/57
f 56/56/56 59/59/59 58/58/58
f 60/60/60 59/59/59 56/56/56
f 61/61/61 57/57/57 58/58/58
f 61/61/61 62/62/62 57/57/57
f 63/63/63 65/65/65 64/64/64
f 63/63/63 66/66/66 65/65/65
f 63/63/63 64/64/64 67/67/67
f 63/63/63 67/67/67 68/68/68
f 69/69/69 66/66/66 63/63/63
f 69/69/69 63/63/63 68/68/68
f 69/69/69 70/70/70 66/66/66
f 69/69/69 71/71/71 70/70/70
f 69/69/69 72/72/72 71/71/71
f 73/73/73 72/72/72 69/69/69
f 73/73/73 71/71/71 72/72/72
f 73/73/73 74/74/74 71/71/71
f 73/73/73 75/75/75 74/74/74
f 73/73/73 76/76/76 75/75/75
f 76/76/76 77/77/77 75/75/75
f 76/76/76 78/78/78 77/77/77
f 79/79/79 77/77/77 78/78/78
f 79/79/79 78/78/78 76/76/76
f 79/79/79 80/80/80 77/77/77
f 81/81/81 80/80/80 79/79/79
f 81/81/81 79/79/79 82/82/82
f 83/83/83 81/81/81 82/82/82
f 83/83/83 82/82/82 84/84/84
f 85/85/85 82/82/82 79/79/79
f 85/85/85 86/86/86 82/82/82
f 86/86/86 87/87/87 82/82/82
f 85/85/85 79/79/79 88/88/88
f 88/88/88 76/76/76 73/73/73
f 79/79/79 76/76/76 88/88/88
f 88/88/88 73/73/73 89/89/89
f 73/73/73 69/69/69 89/89/89
f 69/69/69 68/68/68 89/89/89
f 81/81/81 83/83/83 90/90/90
f 81/81/81 90/90/90 91/91/91
f 80/80/80 81/81/81 91/91/91
f 80/80/80 91/91/91 92/92/92
f 93/93/93 80/80/80 92/92/92
f 93/93/93 77/77/77 80/80/80
f 75/75/75 77/77/77 93/93/93
f 75/75/75 93/93/93 94/94/94
f 94/94/94 93/93/93 95/95/95
f 95/95/95 93/93/93 92/92/92
f 74/74/74 75/75/75 94/94/94
f 74/74/74 94/94/94 96/96/96
f 96/96/96 94/94/94 95/95/95
f 71/71/71 74/74/74 96/96/96
f 71/71/71 96/96/96 97/97/97
f 97/97/97 70/70/70 71/71/71
f 97/97/97 98/98/98 70/70/70
f 99/99/99 98/98/98 97/97/97
f 96/96/96 95/95/95 99/99/99
f 97/97/97 96/96/96 99/99/99
f 66/66/66 70/70/70 98/98/98
f 66/66/66 98/98/98 100/100/100
f 100/100/100 98/98/98 99/99/99
f 65/65/65 66/66/66 100/100/100
f 65/65/65 100/100/100 101/101/101
f 101/101/101 102/102/102 65/65/65
f 101/101/101 103/103/103 102/102/102
f 100/100/100 99/99/99 104/104/104
f 101/101/101 100/100/100 104/104/104
f 101/101/101 104/104/104 105/105/105
f 99/99/99 95/95/95 106/106/106
f 95/95/95 107/107/107 106/106/106
f 92/92/92 107/107/107 95/95/95
f 92/92/92 91/91/91 107/107/107
f 91/91/91 90/90/90 107/107/107
f 99/99/99 106/106/106 108/108/108
f 104/104/104 99/99/99 108/108/108
f 104/104/104 108/108/108 109/109/109
f 105/105/105 104/104/104 109/109/109
f 110/110/110 101/101/101 105/105/105
f 110/110/110 103/103/103 101/101/101
f 110/110/110 105/105/105 109/109/109
f 102/102/102 103/103/103 110/110/110
f 110/110/110 109/109/109 111/111/111
f 102/102/102 110/110/110 112/112/112
f 64/64/64 102/102/102 112/112/112
f 64/64/64 65/65/65 102/102/102
f 113/113/113 64/64/64 112/112/112
f 112/112/112 110/110/110 114/114/114
f 113/113/113 112/112/112 114/114/114
f 110/110/110 115/115/115 114/114/114
f 110/110/110 111/111/111 115/115/115
f 116/116/116 64/64/64 113/113/113
f 116/116/116 113/113/113 114/114/114
f 116/116/116 67/67/67 64/64/64
f 116/116/116 114/114/114 117/117/117
f 118/118/118 120/120/120 119/119/119
f 118/118/118 121/121/121 120/120/120
f 122/122/122 121/121/121 118/118/118
f 122/122/122 118/118/118 123/123/123
f 124/124/124 122/122/122 123/123/123
