# PCF Mesh Export
# vertexCount=112  triCount=186
# materialID=350c6445

v -0.030745 -0.034228 0.111993
v -0.034214 -0.034229 0.098436
v -0.035717 -0.023119 0.099423
v -0.031614 -0.023206 0.112635
v -0.035223 -0.007007 0.099549
v -0.031325 -0.006916 0.112579
v -0.011554 -0.035588 0.132676
v -0.013291 -0.034601 0.131847
v -0.013546 -0.025358 0.132332
v -0.011802 -0.022946 0.133772
v -0.014881 -0.035589 0.131586
v -0.015814 -0.022823 0.13203
v -0.02376 -0.025758 0.124288
v -0.025698 -0.02337 0.123548
v -0.023042 -0.023117 0.126305
v -0.022763 -0.035116 0.125344
v -0.023368 -0.034426 0.123804
v -0.024898 -0.034753 0.123238
v -0.002342 -0.035608 0.134679
v -0.002765 -0.022711 0.135768
v 1e-06 -0.026334 0.134133
v 1e-06 -0.034966 0.133796
v 1e-06 -0.022579 0.136017
v 1e-06 -0.007178 0.135094
v -0.012429 -0.007048 0.132346
v -0.024233 -0.007131 0.124242
v 1e-06 -0.034954 0.13117
v -0.001833 -0.035609 0.13063
v -0.010911 -0.035594 0.128823
v -0.012011 -0.034605 0.128612
v -0.013404 -0.035597 0.127995
v -0.011596 -0.028285 0.127512
v -0.019966 -0.034761 0.122616
v -0.021191 -0.034422 0.121959
v -0.021841 -0.034768 0.120515
v -0.020025 -0.027709 0.120685
v -0.027225 -0.034232 0.110979
v -0.029567 -0.034247 0.098065
v -0.02996 -0.034227 0.085256
v -0.035052 -0.034231 0.084891
v 1e-06 -0.029035 0.129221
v -0.02611 -0.029056 0.110526
v -0.028301 -0.028079 0.097723
v 1e-06 -0.014968 0.078911
v -0.023096 -0.021879 0.084276
v -0.023424 -0.017854 0.077764
v -0.029884 -0.027059 0.084032
v -0.03532 -0.026093 0.084792
v -0.036854 -0.022675 0.08463
v -0.034431 -0.019079 0.076883
v -0.036678 -0.007201 0.084533
v -0.03536 -0.007184 0.076871
v 0.035718 -0.023119 0.099423
v 0.034215 -0.034229 0.098436
v 0.030747 -0.034228 0.111993
v 0.031615 -0.023206 0.112635
v 0.031326 -0.006916 0.112579
v 0.035224 -0.007007 0.099549
v 0.013547 -0.025358 0.132332
v 0.013292 -0.034601 0.131847
v 0.011555 -0.035588 0.132676
v 0.011804 -0.022946 0.133772
v 0.014882 -0.035589 0.131586
v 0.015816 -0.022823 0.13203
v 0.025699 -0.02337 0.123548
v 0.023761 -0.025758 0.124288
v 0.023043 -0.023117 0.126305
v 0.022764 -0.035116 0.125344
v 0.023369 -0.034426 0.123804
v 0.024899 -0.034753 0.123238
v 0.002766 -0.022711 0.135768
v 0.002343 -0.035608 0.134679
v 0.01243 -0.007048 0.132346
v 0.024234 -0.007131 0.124242
v 0.001834 -0.035609 0.13063
v 0.010912 -0.035594 0.128823
v 0.012012 -0.034605 0.128612
v 0.013405 -0.035597 0.127995
v 0.011597 -0.028285 0.127512
v 0.019967 -0.034761 0.122616
v 0.021192 -0.034422 0.121959
v 0.021842 -0.034768 0.120515
v 0.020027 -0.027709 0.120685
v 0.027226 -0.034232 0.110979
v 0.029568 -0.034247 0.098065
v 0.035053 -0.034231 0.084891
v 0.029961 -0.034227 0.085256
v 0.026111 -0.029056 0.110526
v 0.028302 -0.028079 0.097723
v 0.017833 -0.02392 0.117454
v 0.023079 -0.023428 0.102853
v 0.023097 -0.021879 0.084276
v 0.023426 -0.017854 0.077764
v 0.029885 -0.027059 0.084032
v 0.035321 -0.026093 0.084792
v 0.036855 -0.022675 0.08463
v 0.034432 -0.019079 0.076883
v 0.03668 -0.007201 0.084533
v 0.035361 -0.007184 0.076871
v -0.017832 -0.02392 0.117454
v 1e-06 -0.023502 0.123728
v -0.023078 -0.023428 0.102853
v 1e-06 -0.017749 0.10307
v -0.023078 -0.023428 0.102853
v -0.023096 -0.021879 0.084276
v -0.023424 -0.017854 0.077764
v 1e-06 -0.023502 0.123728
v 0.017833 -0.02392 0.117454
v 0.023079 -0.023428 0.102853
v 0.023097 -0.021879 0.084276
v 0.023426 -0.017854 0.077764
v -0.017832 -0.02392 0.117454

vn -0.622047 -0.748031 0.228346
vn -0.653543 -0.748031 0.094488
vn -0.976378 -0.11811 0.141732
vn -0.92126 -0.03937 0.377953
vn -0.976378 0.015748 0.188976
vn -0.913386 0.023622 0.393701
vn -0.433071 -0.692913 0.574803
vn -0.259843 -0.669291 0.692913
vn -0.362205 -0.125984 0.92126
vn -0.346457 -0.055118 0.929134
vn -0.110236 -0.716535 0.685039
vn -0.440945 -0.047244 0.889764
vn -0.692913 -0.165354 0.692913
vn -0.724409 -0.086614 0.669291
vn -0.724409 -0.070866 0.677165
vn -0.622047 -0.732283 0.275591
vn -0.496063 -0.755906 0.433071
vn -0.393701 -0.748031 0.527559
vn 0.181102 -0.732283 0.661417
vn -0.031496 -0.094488 0.992126
vn 0 -0.267717 0.96063
vn 0.007874 -0.740157 0.677165
vn 0 -0.204724 0.976378
vn 0 0.062992 0.992126
vn -0.401575 0.070866 0.905512
vn -0.732283 0.047244 0.669291
vn 0.007874 -0.826772 -0.574803
vn 0.259843 -0.779528 -0.582677
vn -0.110236 -0.724409 -0.685039
vn 0.188976 -0.748031 -0.645669
vn 0.511811 -0.716535 -0.480315
vn 0.291339 -0.417323 -0.866142
vn 0.251969 -0.748031 -0.629921
vn 0.425197 -0.795276 -0.448819
vn 0.598425 -0.771654 -0.228346
vn 0.677165 -0.440945 -0.606299
vn 0.582677 -0.787402 -0.228346
vn 0.645669 -0.76378 -0.086614
vn 0.511811 -0.645669 -0.582677
vn -0.559055 -0.645669 -0.527559
vn 0.007874 -0.425197 -0.913386
vn 0.84252 -0.464567 -0.299213
vn 0.88189 -0.456693 -0.141732
vn 0 -0.952756 -0.330709
vn 0.354331 -0.858268 -0.377953
vn 0.212598 -0.76378 -0.614173
vn 0.440945 -0.614173 -0.661417
vn -0.748031 -0.425197 -0.511811
vn -0.96063 -0.212598 -0.141732
vn -0.535433 -0.566929 -0.637795
vn -0.992126 -0.007874 -0.07874
vn -0.968504 -0.031496 -0.244094
vn 0.984252 -0.11811 0.141732
vn 0.661417 -0.748031 0.094488
vn 0.629921 -0.748031 0.228346
vn 0.929134 -0.03937 0.377953
vn 0.92126 0.023622 0.393701
vn 0.984252 0.015748 0.188976
vn 0.370079 -0.125984 0.92126
vn 0.267717 -0.669291 0.692913
vn 0.440945 -0.692913 0.574803
vn 0.354331 -0.055118 0.929134
vn 0.11811 -0.716535 0.685039
vn 0.448819 -0.047244 0.889764
vn 0.732283 -0.086614 0.669291
vn 0.700787 -0.165354 0.692913
vn 0.732283 -0.070866 0.677165
vn 0.629921 -0.732283 0.275591
vn 0.503937 -0.755906 0.433071
vn 0.401575 -0.748031 0.527559
vn 0.03937 -0.094488 0.992126
vn -0.173228 -0.732283 0.661417
vn 0.409449 0.070866 0.905512
vn 0.740157 0.047244 0.669291
vn -0.251969 -0.779528 -0.582677
vn 0.11811 -0.724409 -0.685039
vn -0.181102 -0.748031 -0.645669
vn -0.503937 -0.716535 -0.480315
vn -0.283465 -0.417323 -0.866142
vn -0.244094 -0.748031 -0.629921
vn -0.417323 -0.795276 -0.448819
vn -0.590551 -0.771654 -0.228346
vn -0.669291 -0.440945 -0.606299
vn -0.574803 -0.787402 -0.228346
vn -0.637795 -0.76378 -0.086614
vn 0.566929 -0.645669 -0.527559
vn -0.503937 -0.645669 -0.582677
vn -0.834646 -0.464567 -0.299213
vn -0.874016 -0.456693 -0.141732
vn -0.377953 -0.866142 -0.346457
vn -0.511811 -0.84252 -0.181102
vn -0.346457 -0.858268 -0.377953
vn -0.204724 -0.76378 -0.614173
vn -0.433071 -0.614173 -0.661417
vn 0.755906 -0.425197 -0.511811
vn 0.968504 -0.212598 -0.141732
vn 0.543307 -0.566929 -0.637795
vn 1 -0.007874 -0.07874
vn 0.976378 -0.031496 -0.244094
vn 0.385827 -0.866142 -0.346457
vn 0 -0.874016 -0.496063
vn 0.519685 -0.84252 -0.181102
vn 0 -0.992126 -0.15748
vn 0.519685 -0.84252 -0.181102
vn 0.354331 -0.858268 -0.377953
vn 0.212598 -0.76378 -0.614173
vn 0 -0.874016 -0.496063
vn -0.377953 -0.866142 -0.346457
vn -0.511811 -0.84252 -0.181102
vn -0.346457 -0.858268 -0.377953
vn -0.204724 -0.76378 -0.614173
vn 0.385827 -0.866142 -0.346457

vt 0.07924 0.493079
vt 0.093583 0.493079
vt 0.093583 0.505932
vt 0.07924 0.505932
vt 0.093583 0.526543
vt 0.07924 0.526544
vt 0.032421 0.493079
vt 0.03554 0.493079
vt 0.03554 0.50248
vt 0.032421 0.505932
vt 0.038814 0.493079
vt 0.038814 0.505932
vt 0.057573 0.502264
vt 0.060698 0.505932
vt 0.05475 0.505932
vt 0.05475 0.493079
vt 0.057573 0.493079
vt 0.060698 0.493079
vt 0.018403 0.493079
vt 0.018403 0.505932
vt 0.014512 0.500064
vt 0.014512 0.493079
vt 0.014512 0.505932
vt 0.014512 0.526543
vt 0.035617 0.526543
vt 0.057573 0.526544
vt 0.014512 0.488258
vt 0.018403 0.488258
vt 0.032421 0.488258
vt 0.03554 0.488258
vt 0.038814 0.488258
vt 0.03554 0.481187
vt 0.05475 0.488258
vt 0.057573 0.488258
vt 0.060698 0.488258
vt 0.057573 0.481187
vt 0.07924 0.488258
vt 0.093583 0.488258
vt 0.100676 0.488258
vt 0.101005 0.493079
vt 0.014512 0.481187
vt 0.07924 0.481187
vt 0.093583 0.481187
vt 0.18079 0.420965
vt 0.202756 0.427167
vt 0.20326 0.419901
vt 0.10758 0.481187
vt 0.107586 0.500283
vt 0.108289 0.505932
vt 0.123046 0.505932
vt 0.10796 0.526544
vt 0.123046 0.526543
vt 0.093583 0.505932
vt 0.093583 0.493079
vt 0.07924 0.493079
vt 0.07924 0.505932
vt 0.07924 0.526543
vt 0.093583 0.526543
vt 0.03554 0.50248
vt 0.03554 0.493079
vt 0.032421 0.493079
vt 0.032421 0.505932
vt 0.038814 0.493079
vt 0.038814 0.505932
vt 0.060698 0.505932
vt 0.057573 0.502264
vt 0.05475 0.505932
vt 0.05475 0.493079
vt 0.057573 0.493079
vt 0.060698 0.493079
vt 0.018403 0.505932
vt 0.018403 0.493079
vt 0.035617 0.526543
vt 0.057573 0.526544
vt 0.018403 0.488258
vt 0.032421 0.488258
vt 0.03554 0.488258
vt 0.038814 0.488258
vt 0.03554 0.481187
vt 0.05475 0.488258
vt 0.057573 0.488258
vt 0.060698 0.488258
vt 0.057573 0.481187
vt 0.07924 0.488258
vt 0.093583 0.488258
vt 0.101005 0.493079
vt 0.100676 0.488258
vt 0.07924 0.481187
vt 0.093583 0.481187
vt 0.06227 0.471088
vt 0.088044 0.471088
vt 0.202756 0.427167
vt 0.20326 0.419901
vt 0.10758 0.481187
vt 0.107586 0.500283
vt 0.108289 0.505932
vt 0.123046 0.505932
vt 0.10796 0.526544
vt 0.123046 0.526543
vt 0.06227 0.471088
vt 0.014512 0.471088
vt 0.088044 0.471088
vt 0.180787 0.443941
vt 0.201452 0.441858
vt 0.109832 0.471088
vt 0.123046 0.471088
vt 0.18079 0.463605
vt 0.199539 0.453141
vt 0.201478 0.441861
vt 0.109832 0.471088
vt 0.123046 0.471088
vt 0.199534 0.453157

f 4/4/4 2/2/2 1/1/1
f 4/4/4 3/3/3 2/2/2
f 4/4/4 5/5/5 3/3/3
f 4/4/4 6/6/6 5/5/5
f 14/14/14 4/4/4 1/1/1
f 14/14/14 6/6/6 4/4/4
f 14/14/14 1/1/1 18/18/18
f 14/14/14 18/18/18 17/17/17
f 14/14/14 17/17/17 13/13/13
f 15/15/15 14/14/14 13/13/13
f 15/15/15 13/13/13 17/17/17
f 15/15/15 17/17/17 16/16/16
f 15/15/15 16/16/16 11/11/11
f 15/15/15 11/11/11 12/12/12
f 12/12/12 11/11/11 8/8/8
f 12/12/12 8/8/8 9/9/9
f 10/10/10 9/9/9 8/8/8
f 10/10/10 12/12/12 9/9/9
f 10/10/10 8/8/8 7/7/7
f 19/19/19 10/10/10 7/7/7
f 19/19/19 20/20/20 10/10/10
f 22/22/22 20/20/20 19/19/19
f 22/22/22 21/21/21 20/20/20
f 23/23/23 20/20/20 21/21/21
f 24/24/24 20/20/20 23/23/23
f 24/24/24 10/10/10 20/20/20
f 24/24/24 25/25/25 10/10/10
f 25/25/25 15/15/15 12/12/12
f 10/10/10 25/25/25 12/12/12
f 25/25/25 26/26/26 15/15/15
f 15/15/15 26/26/26 14/14/14
f 14/14/14 26/26/26 6/6/6
f 19/19/19 27/27/27 22/22/22
f 19/19/19 28/28/28 27/27/27
f 7/7/7 28/28/28 19/19/19
f 7/7/7 29/29/29 28/28/28
f 30/30/30 29/29/29 7/7/7
f 30/30/30 7/7/7 8/8/8
f 11/11/11 30/30/30 8/8/8
f 11/11/11 31/31/31 30/30/30
f 31/31/31 32/32/32 30/30/30
f 32/32/32 29/29/29 30/30/30
f 16/16/16 31/31/31 11/11/11
f 16/16/16 33/33/33 31/31/31
f 33/33/33 32/32/32 31/31/31
f 17/17/17 33/33/33 16/16/16
f 17/17/17 34/34/34 33/33/33
f 34/34/34 17/17/17 18/18/18
f 34/34/34 18/18/18 35/35/35
f 36/36/36 34/34/34 35/35/35
f 33/33/33 36/36/36 32/32/32
f 34/34/34 36/36/36 33/33/33
f 1/1/1 35/35/35 18/18/18
f 1/1/1 37/37/37 35/35/35
f 37/37/37 36/36/36 35/35/35
f 2/2/2 37/37/37 1/1/1
f 2/2/2 38/38/38 37/37/37
f 38/38/38 2/2/2 40/40/40
f 38/38/38 40/40/40 39/39/39
f 37/37/37 42/42/42 36/36/36
f 38/38/38 42/42/42 37/37/37
f 38/38/38 43/43/43 42/42/42
f 36/36/36 101/101/101 32/32/32
f 36/36/36 100/100/100 101/101/101
f 42/42/42 100/100/100 36/36/36
f 42/42/42 102/102/102 100/100/100
f 43/43/43 102/102/102 42/42/42
f 47/47/47 38/38/38 39/39/39
f 47/47/47 43/43/43 38/38/38
f 47/47/47 102/102/102 43/43/43
f 40/40/40 47/47/47 39/39/39
f 47/47/47 105/105/105 102/102/102
f 40/40/40 48/48/48 47/47/47
f 3/3/3 40/40/40 2/2/2
f 3/3/3 48/48/48 40/40/40
f 49/49/49 48/48/48 3/3/3
f 48/48/48 50/50/50 47/47/47
f 49/49/49 50/50/50 48/48/48
f 47/47/47 106/106/106 105/105/105
f 47/47/47 50/50/50 106/106/106
f 51/51/51 49/49/49 3/3/3
f 51/51/51 50/50/50 49/49/49
f 51/51/51 3/3/3 5/5/5
f 51/51/51 52/52/52 50/50/50
f 32/32/32 101/101/101 41/41/41
f 29/29/29 32/32/32 41/41/41
f 29/29/29 41/41/41 28/28/28
f 28/28/28 41/41/41 27/27/27
f 75/75/75 27/27/27 41/41/41
f 72/72/72 27/27/27 75/75/75
f 72/72/72 22/22/22 27/27/27
f 22/22/22 72/72/72 71/71/71
f 22/22/22 71/71/71 21/21/21
f 23/23/23 21/21/21 71/71/71
f 72/72/72 62/62/62 71/71/71
f 72/72/72 61/61/61 62/62/62
f 61/61/61 72/72/72 75/75/75
f 62/62/62 61/61/61 60/60/60
f 62/62/62 60/60/60 59/59/59
f 64/64/64 59/59/59 60/60/60
f 62/62/62 59/59/59 64/64/64
f 64/64/64 60/60/60 63/63/63
f 67/67/67 64/64/64 63/63/63
f 67/67/67 63/63/63 68/68/68
f 67/67/67 68/68/68 69/69/69
f 67/67/67 69/69/69 66/66/66
f 67/67/67 66/66/66 65/65/65
f 65/65/65 66/66/66 69/69/69
f 65/65/65 69/69/69 70/70/70
f 65/65/65 70/70/70 55/55/55
f 65/65/65 55/55/55 56/56/56
f 56/56/56 55/55/55 54/54/54
f 56/56/56 54/54/54 53/53/53
f 56/56/56 53/53/53 58/58/58
f 56/56/56 58/58/58 57/57/57
f 65/65/65 56/56/56 57/57/57
f 65/65/65 57/57/57 74/74/74
f 67/67/67 65/65/65 74/74/74
f 73/73/73 67/67/67 74/74/74
f 73/73/73 64/64/64 67/67/67
f 62/62/62 64/64/64 73/73/73
f 24/24/24 62/62/62 73/73/73
f 24/24/24 71/71/71 62/62/62
f 24/24/24 23/23/23 71/71/71
f 55/55/55 70/70/70 82/82/82
f 81/81/81 82/82/82 70/70/70
f 81/81/81 70/70/70 69/69/69
f 69/69/69 80/80/80 81/81/81
f 69/69/69 68/68/68 80/80/80
f 68/68/68 78/78/78 80/80/80
f 68/68/68 63/63/63 78/78/78
f 63/63/63 77/77/77 78/78/78
f 63/63/63 60/60/60 77/77/77
f 77/77/77 60/60/60 61/61/61
f 77/77/77 61/61/61 76/76/76
f 61/61/61 75/75/75 76/76/76
f 78/78/78 77/77/77 79/79/79
f 79/79/79 77/77/77 76/76/76
f 80/80/80 78/78/78 79/79/79
f 83/83/83 82/82/82 81/81/81
f 80/80/80 79/79/79 83/83/83
f 81/81/81 80/80/80 83/83/83
f 76/76/76 41/41/41 79/79/79
f 76/76/76 75/75/75 41/41/41
f 84/84/84 82/82/82 83/83/83
f 55/55/55 82/82/82 84/84/84
f 54/54/54 55/55/55 84/84/84
f 54/54/54 84/84/84 85/85/85
f 85/85/85 86/86/86 54/54/54
f 85/85/85 87/87/87 86/86/86
f 84/84/84 83/83/83 88/88/88
f 85/85/85 84/84/84 88/88/88
f 85/85/85 88/88/88 89/89/89
f 79/79/79 41/41/41 101/101/101
f 83/83/83 79/79/79 101/101/101
f 83/83/83 101/101/101 90/90/90
f 88/88/88 83/83/83 90/90/90
f 88/88/88 90/90/90 91/91/91
f 89/89/89 88/88/88 91/91/91
f 94/94/94 85/85/85 89/89/89
f 94/94/94 87/87/87 85/85/85
f 94/94/94 89/89/89 91/91/91
f 86/86/86 87/87/87 94/94/94
f 94/94/94 91/91/91 110/110/110
f 86/86/86 94/94/94 95/95/95
f 53/53/53 86/86/86 95/95/95
f 53/53/53 54/54/54 86/86/86
f 96/96/96 53/53/53 95/95/95
f 95/95/95 94/94/94 97/97/97
f 96/96/96 95/95/95 97/97/97
f 94/94/94 111/111/111 97/97/97
f 94/94/94 110/110/110 111/111/111
f 98/98/98 53/53/53 96/96/96
f 98/98/98 96/96/96 97/97/97
f 98/98/98 58/58/58 53/53/53
f 98/98/98 97/97/97 99/99/99
f 45/45/45 103/103/103 104/104/104
f 45/45/45 44/44/44 103/103/103
f 46/46/46 44/44/44 45/45/45
f 92/92/92 103/103/103 44/44/44
f 92/92/92 109/109/109 103/103/103
f 103/103/103 109/109/109 108/108/108
f 103/103/103 108/108/108 107/107/107
f 107/107/107 104/104/104 103/103/103
f 93/93/93 92/92/92 44/44/44
f 107/107/107 112/112/112 104/104/104
