# Blender 4.5.0
# www.blender.org
mtllib Untitled6.mtl
o Plane
v 4.413122 -0.003472 -0.855593
v -2.498167 -0.003472 -0.855591
v 4.413124 -0.003472 3.475681
v -2.498166 -0.003472 3.475683
v 4.413124 -0.240538 3.475681
v 4.413122 -0.240538 -0.855593
v -2.498167 -0.240538 -0.855591
v -2.498166 -0.240538 3.475683
v 4.413122 4.131077 -0.648351
v -2.498167 4.131077 -0.648349
v 4.413122 -0.200197 -0.648351
v -2.498167 -0.200197 -0.648349
v 4.413122 -0.200197 -0.885417
v 4.413122 4.131077 -0.885417
v -2.498167 4.131077 -0.885415
v -2.498167 -0.200197 -0.885415
v 4.413124 -0.092354 3.250656
v -2.498166 -0.092354 3.250658
v 4.413124 4.238920 3.250656
v -2.498166 4.238920 3.250658
v 4.413124 4.238920 3.487722
v 4.413124 -0.092354 3.487722
v -2.498166 -0.092354 3.487724
v -2.498166 4.238920 3.487724
v 4.413124 4.042196 3.457898
v -2.498166 4.042196 3.457900
v 4.413122 4.042194 -0.873376
v -2.498167 4.042194 -0.873374
v 4.413122 4.279260 -0.873376
v 4.413124 4.279262 3.457898
v -2.498166 4.279262 3.457900
v -2.498167 4.279260 -0.873374
v 3.047834 -0.092354 -2.689325
v 3.047837 -0.092354 4.221964
v 3.047834 4.238920 -2.689325
v 3.047836 4.238920 4.221964
v 3.284900 4.238920 -2.689325
v 3.284900 -0.092354 -2.689325
v 3.284903 -0.092354 4.221964
v 3.284902 4.238920 4.221964
v -1.672047 -0.092354 -2.689324
v -1.672044 -0.092354 4.221965
v -1.672047 4.238920 -2.689324
v -1.672044 4.238920 4.221965
v -1.434981 4.238920 -2.689324
v -1.434981 -0.092354 -2.689324
v -1.434978 -0.092354 4.221965
v -1.434978 4.238920 4.221965
v 2.177527 -0.092354 -0.107874
v 2.177528 -0.092354 2.738978
v 2.177527 4.238920 -0.107874
v 2.177528 4.238920 2.738978
v 2.369286 4.238920 -0.107874
v 2.369286 -0.092354 -0.107874
v 2.369287 -0.092354 2.738978
v 2.369287 4.238920 2.738978
v -0.162131 -0.092354 -0.107873
v -0.162130 -0.092354 2.386467
v -0.162131 4.238920 -0.107873
v -0.162130 4.238920 2.386467
v 0.029627 4.238920 -0.107873
v 0.029628 -0.092354 -0.107873
v 0.029629 -0.092354 2.386467
v 0.029629 4.238920 2.386467
v -0.395530 -0.092354 3.119547
v 2.451323 -0.092354 3.119545
v -0.395530 4.238920 3.119547
v 2.451323 4.238920 3.119545
v -0.395530 4.238920 2.927788
v -0.395530 -0.092354 2.927788
v 2.451323 -0.092354 2.927786
v 2.451323 4.238920 2.927786
v -0.395530 -0.092354 0.779889
v 2.451322 -0.092354 0.779887
v -0.395530 4.238920 0.779889
v 2.451322 4.238920 0.779887
v -0.395530 4.238920 0.588130
v -0.395530 -0.092354 0.588130
v 2.451322 -0.092354 0.588128
v 2.451322 4.238920 0.588128
v 1.558629 -0.040713 0.871688
v 1.558629 0.273155 0.871688
v 1.558630 -0.040713 1.591215
v 1.558630 0.273155 1.591215
v 0.502845 -0.040713 0.871689
v 0.502845 0.273155 0.871689
v 0.502845 -0.040713 1.591215
v 0.502845 0.273155 1.591215
v 1.558629 0.219652 0.871688
v 1.558630 0.219652 1.591215
v 0.502845 0.219652 1.591215
v 0.502845 0.219652 0.871689
v 0.572937 -0.040713 1.591215
v 0.572937 0.266997 1.591215
v 0.572937 -0.040713 0.871689
v 0.572937 0.273155 0.871689
v 0.572937 0.219652 0.871689
v 0.572937 0.219652 1.591215
v 1.491545 -0.040713 1.591215
v 1.491545 0.273155 0.871689
v 1.491545 0.219652 0.871689
v 1.491545 0.266997 1.591215
v 1.491545 -0.040713 0.871689
v 1.491545 0.219652 1.591215
v 1.491545 0.219652 1.400321
v 0.572937 0.219652 1.400322
v 0.572937 -0.040713 1.400322
v 1.491545 -0.040713 1.400321
v 1.491545 -0.040713 0.952248
v 0.572937 -0.040713 0.952249
v 0.572937 0.219652 0.952249
v 1.491545 0.219652 0.952248
v 1.558630 -0.040713 0.965193
v 1.558630 0.273155 0.965193
v 0.502845 -0.040713 0.965193
v 0.502845 0.273155 0.965193
v 0.502845 0.219652 0.965193
v 1.558630 0.219652 0.965193
v 0.572937 0.266997 0.965193
v 0.572937 -0.040713 0.965193
v 1.491545 -0.040713 0.965193
v 1.491545 0.266997 0.965193
v 4.413124 2.411062 3.457898
v -2.498166 2.411062 3.457900
v 4.413122 2.411060 -0.873376
v -2.498167 2.411060 -0.873374
v 4.413122 2.648126 -0.873376
v 4.413124 2.648128 3.457898
v -2.498166 2.648128 3.457900
v -2.498167 2.648126 -0.873374
v 2.184403 -0.622265 1.506325
v 2.184403 0.097261 1.506325
v 2.184403 -0.622265 1.828344
v 2.184403 0.097261 1.828344
v 1.881444 -0.622265 1.506325
v 1.881444 0.097261 1.506325
v 1.881444 -0.622265 1.828344
v 1.881444 0.097261 1.828344
v 2.184403 -0.622265 1.579960
v 2.184403 0.097261 1.579960
v 1.881444 -0.622265 1.579960
v 1.881444 0.097261 1.579960
v 2.184403 0.097261 1.740666
v 1.881444 -0.622265 1.740666
v 2.184403 -0.622265 1.740666
v 1.881444 0.097261 1.740666
v 1.973953 0.097261 1.740666
v 1.973953 0.097261 1.579960
v 1.973953 -0.622265 1.579960
v 1.973953 -0.622265 1.740666
v 2.184403 0.097261 1.786158
v 2.184403 -0.622265 1.786158
v 1.881444 -0.622265 1.786158
v 1.881444 0.097261 1.786158
v 1.881444 0.087644 1.740666
v 1.881444 0.087644 1.579960
v 2.184403 0.097261 1.579960
v 2.184403 0.097261 1.740666
v 2.092257 -0.622265 1.828344
v 2.092257 0.097261 1.828344
v 2.092257 -0.622265 1.506325
v 2.092257 0.097261 1.506325
v 2.092257 0.097261 1.579960
v 2.092257 -0.622265 1.579960
v 2.092257 -0.622265 1.740666
v 2.092257 0.097261 1.740666
v 2.092257 -0.622265 1.786158
v 2.092257 0.097261 1.786158
v 2.092257 0.087644 1.579960
v 2.092257 0.087644 1.740666
v 2.166416 -0.489153 2.762727
v 2.166416 0.230374 2.762727
v 1.844397 -0.489153 2.762727
v 1.844397 0.230374 2.762727
v 2.166415 -0.489153 2.459767
v 2.166415 0.230374 2.459767
v 1.844397 -0.489153 2.459767
v 1.844397 0.230374 2.459767
v 2.092781 -0.489153 2.762727
v 2.092781 0.230374 2.762727
v 2.092781 -0.489153 2.459767
v 2.092781 0.230374 2.459767
v 1.932075 0.230374 2.762727
v 1.932076 -0.489153 2.459767
v 1.932075 -0.489153 2.762727
v 1.932076 0.230374 2.459767
v 1.932075 0.230374 2.552276
v 2.092781 0.230374 2.552276
v 2.092781 -0.489153 2.552276
v 1.932075 -0.489153 2.552276
v 1.886583 0.230374 2.762727
v 1.886583 -0.489153 2.762727
v 1.886583 -0.489153 2.459767
v 1.886583 0.230374 2.459767
v 1.932076 0.220756 2.459767
v 2.092781 0.220756 2.459767
v 2.092781 0.230374 2.762727
v 1.932075 0.230374 2.762727
v 1.844397 -0.489153 2.670580
v 1.844397 0.230374 2.670580
v 2.166416 -0.489153 2.670580
v 2.166416 0.230374 2.670580
v 2.092781 0.230374 2.670580
v 2.092781 -0.489153 2.670580
v 1.932075 -0.489153 2.670580
v 1.932075 0.230374 2.670580
v 1.886583 -0.489153 2.670580
v 1.886583 0.230374 2.670580
v 2.092781 0.220756 2.670580
v 1.932075 0.220756 2.670580
v 1.928972 -0.489153 2.762727
v 1.928972 0.230374 2.762727
v 1.606953 -0.489153 2.762727
v 1.606953 0.230374 2.762727
v 1.928972 -0.489153 2.459767
v 1.928972 0.230374 2.459767
v 1.606953 -0.489153 2.459767
v 1.606953 0.230374 2.459767
v 1.855338 -0.489153 2.762727
v 1.855338 0.230374 2.762727
v 1.855338 -0.489153 2.459767
v 1.855338 0.230374 2.459767
v 1.694632 0.230374 2.762727
v 1.694632 -0.489153 2.459767
v 1.694632 -0.489153 2.762727
v 1.694632 0.230374 2.459767
v 1.694632 0.230374 2.552276
v 1.855338 0.230374 2.552276
v 1.855338 -0.489153 2.552276
v 1.694632 -0.489153 2.552276
v 1.649140 0.230374 2.762727
v 1.649140 -0.489153 2.762727
v 1.649140 -0.489153 2.459767
v 1.649140 0.230374 2.459767
v 1.694632 0.220756 2.459767
v 1.855338 0.220756 2.459767
v 1.855338 0.230374 2.762727
v 1.694632 0.230374 2.762727
v 1.606953 -0.489153 2.670580
v 1.606953 0.230374 2.670580
v 1.928972 -0.489153 2.670580
v 1.928972 0.230374 2.670580
v 1.855338 0.230374 2.670580
v 1.855338 -0.489153 2.670580
v 1.694632 -0.489153 2.670580
v 1.694632 0.230374 2.670580
v 1.649140 -0.489153 2.670580
v 1.649140 0.230374 2.670580
v 1.855338 0.220756 2.670580
v 1.694632 0.220756 2.670580
vn -0.0000 -1.0000 -0.0000
vn -0.0000 1.0000 -0.0000
vn -0.0000 -0.0000 -1.0000
vn -0.0000 -0.0000 1.0000
vn 1.0000 -0.0000 -0.0000
vn -1.0000 -0.0000 -0.0000
vn -0.0458 0.9984 0.0329
vn 0.0439 0.9985 0.0329
vn -0.0000 0.9978 0.0657
vn 0.0875 0.9962 -0.0000
vn -0.0914 0.9958 -0.0000
vn -0.1038 0.9946 -0.0000
vn -0.0000 0.9946 -0.1038
vt 0.343512 0.643091
vt 0.485658 0.643091
vt 0.485658 0.500946
vt 0.343512 0.500946
vt 0.486244 0.643091
vt 0.628390 0.643091
vt 0.628390 0.500946
vt 0.486244 0.500946
vt 0.628976 0.643091
vt 0.771122 0.643091
vt 0.771122 0.500946
vt 0.628976 0.500946
vt 0.343512 0.785823
vt 0.485658 0.785823
vt 0.485658 0.643678
vt 0.343512 0.643678
vt 0.486244 0.785823
vt 0.628390 0.785823
vt 0.628390 0.643678
vt 0.486244 0.643678
vt 0.628976 0.785823
vt 0.771122 0.785823
vt 0.771122 0.643678
vt 0.628976 0.643678
vt 0.695216 0.142439
vt 0.837361 0.142439
vt 0.837361 0.000293
vt 0.695216 0.000293
vt 0.695216 0.285171
vt 0.837361 0.285171
vt 0.837361 0.143025
vt 0.695216 0.143025
vt 0.695216 0.427903
vt 0.837361 0.427903
vt 0.837361 0.285757
vt 0.695216 0.285757
vt 0.771708 0.643091
vt 0.913854 0.643091
vt 0.913854 0.500946
vt 0.771708 0.500946
vt 0.408527 0.791028
vt 0.414585 0.791028
vt 0.414585 0.821946
vt 0.408527 0.821946
vt 0.408527 0.855123
vt 0.414585 0.855123
vt 0.414585 0.857483
vt 0.408527 0.857483
vt 0.408527 0.888401
vt 0.414585 0.888401
vt 0.414585 0.893019
vt 0.408527 0.893019
vt 0.408527 0.926297
vt 0.414585 0.926297
vt 0.414585 0.928555
vt 0.408527 0.928555
vt 0.376690 0.888401
vt 0.379049 0.888401
vt 0.379049 0.893019
vt 0.376690 0.893019
vt 0.447863 0.888401
vt 0.450121 0.888401
vt 0.450121 0.893019
vt 0.447863 0.893019
vt 0.379049 0.926297
vt 0.379049 0.928555
vt 0.379049 0.855123
vt 0.379049 0.857483
vt 0.379049 0.791028
vt 0.379049 0.821946
vt 0.408527 0.895378
vt 0.379049 0.895378
vt 0.416944 0.888401
vt 0.416944 0.893019
vt 0.345770 0.888401
vt 0.345770 0.893019
vt 0.414585 0.895378
vt 0.408527 0.824204
vt 0.414585 0.824204
vt 0.343512 0.888401
vt 0.343512 0.893019
vt 0.379049 0.824204
vt 0.376690 0.857483
vt 0.345770 0.857483
vt 0.416944 0.857483
vt 0.447863 0.857483
vt 0.343512 0.857483
vt 0.379049 0.786410
vt 0.408527 0.786410
vt 0.450121 0.857483
vt 0.414585 0.786410
vt 0.771708 0.785823
vt 0.913854 0.785823
vt 0.913854 0.643678
vt 0.771708 0.643678
vt 0.176719 0.241831
vt 0.174727 0.330787
vt 0.162612 0.323777
vt 0.166992 0.246120
vt 0.157020 0.320841
vt 0.162424 0.248810
vt 0.275263 0.107712
vt 0.301154 0.500359
vt 0.258035 0.371612
vt 0.255347 0.203057
vt 0.215560 0.235177
vt 0.219161 0.332888
vt 0.202995 0.321840
vt 0.205279 0.244009
vt 0.201950 0.225271
vt 0.208210 0.345232
vt 0.193027 0.327801
vt 0.062074 0.486089
vt 0.083039 0.470462
vt 0.282655 0.486774
vt 0.171166 0.226088
vt 0.094718 0.107050
vt 0.041286 0.000293
vt 0.326597 0.000293
vt 0.195620 0.241404
vt 0.114835 0.205512
vt 0.097562 0.357878
vt 0.157109 0.234643
vt 0.150161 0.334556
vt 0.162372 0.347335
vt 0.000293 0.480818
vt 0.347168 0.498454
vt 0.151602 0.240594
vt 0.145950 0.326835
vt 0.107588 0.340681
vt 0.123200 0.221777
vt 0.165662 0.349698
vt 0.174738 0.330804
vt 0.193017 0.327831
vt 0.204682 0.347692
vt 0.174713 0.745744
vt 0.171755 0.833396
vt 0.160159 0.825839
vt 0.164964 0.749973
vt 0.154777 0.822953
vt 0.160429 0.752629
vt 0.274944 0.609947
vt 0.297264 0.999707
vt 0.256004 0.878541
vt 0.254595 0.706745
vt 0.213959 0.739350
vt 0.216317 0.839186
vt 0.199995 0.826914
vt 0.203421 0.748213
vt 0.200234 0.729231
vt 0.204176 0.851979
vt 0.189885 0.832357
vt 0.062242 0.987490
vt 0.082437 0.972039
vt 0.278765 0.986470
vt 0.169227 0.729908
vt 0.091333 0.609196
vt 0.036928 0.500946
vt 0.326837 0.500946
vt 0.193701 0.745468
vt 0.112480 0.709222
vt 0.095409 0.865352
vt 0.155143 0.738462
vt 0.148372 0.835869
vt 0.158706 0.847866
vt 0.000293 0.982779
vt 0.342926 0.998222
vt 0.149657 0.744421
vt 0.144062 0.828703
vt 0.105729 0.845735
vt 0.121012 0.725603
vt 0.161751 0.850072
vt 0.171764 0.833414
vt 0.189873 0.832387
vt 0.200393 0.854540
vt 0.524181 0.241831
vt 0.522188 0.330787
vt 0.510074 0.323777
vt 0.514454 0.246119
vt 0.504481 0.320841
vt 0.509885 0.248810
vt 0.622724 0.107712
vt 0.648615 0.500359
vt 0.605496 0.371612
vt 0.602809 0.203057
vt 0.563021 0.235177
vt 0.566622 0.332888
vt 0.550457 0.321840
vt 0.552741 0.244009
vt 0.549411 0.225271
vt 0.555672 0.345232
vt 0.540488 0.327801
vt 0.409535 0.486089
vt 0.430500 0.470462
vt 0.630116 0.486774
vt 0.518628 0.226088
vt 0.442179 0.107050
vt 0.388748 0.000293
vt 0.674058 0.000293
vt 0.543081 0.241403
vt 0.462296 0.205512
vt 0.445023 0.357878
vt 0.504570 0.234643
vt 0.497622 0.334556
vt 0.509834 0.347335
vt 0.347755 0.480818
vt 0.694629 0.498454
vt 0.499064 0.240594
vt 0.493412 0.326835
vt 0.455049 0.340680
vt 0.470662 0.221777
vt 0.513124 0.349698
vt 0.522199 0.330804
vt 0.540479 0.327831
vt 0.552144 0.347692
s 0
usemtl Material.001
f 1/1/1 3/2/1 4/3/1 2/4/1
f 6/1/2 7/4/2 8/3/2 5/2/2
f 4/3/3 3/2/3 5/2/3 8/3/3
f 1/1/4 2/4/4 7/4/4 6/1/4
f 2/4/5 4/3/5 8/3/5 7/4/5
f 3/2/6 1/1/6 6/1/6 5/2/6
f 9/5/3 11/6/3 12/7/3 10/8/3
f 14/5/4 15/8/4 16/7/4 13/6/4
f 12/7/2 11/6/2 13/6/2 16/7/2
f 9/5/1 10/8/1 15/8/1 14/5/1
f 10/8/5 12/7/5 16/7/5 15/8/5
f 11/6/6 9/5/6 14/5/6 13/6/6
f 17/9/4 19/10/4 20/11/4 18/12/4
f 22/9/3 23/12/3 24/11/3 21/10/3
f 20/11/1 19/10/1 21/10/1 24/11/1
f 17/9/2 18/12/2 23/12/2 22/9/2
f 18/12/5 20/11/5 24/11/5 23/12/5
f 19/10/6 17/9/6 22/9/6 21/10/6
f 25/13/2 27/14/2 28/15/2 26/16/2
f 30/13/1 31/16/1 32/15/1 29/14/1
f 28/15/4 27/14/4 29/14/4 32/15/4
f 25/13/3 26/16/3 31/16/3 30/13/3
f 26/16/5 28/15/5 32/15/5 31/16/5
f 27/14/6 25/13/6 30/13/6 29/14/6
f 33/17/5 35/18/5 36/19/5 34/20/5
f 38/17/6 39/20/6 40/19/6 37/18/6
f 36/19/1 35/18/1 37/18/1 40/19/1
f 33/17/2 34/20/2 39/20/2 38/17/2
f 34/20/3 36/19/3 40/19/3 39/20/3
f 35/18/4 33/17/4 38/17/4 37/18/4
f 41/21/5 43/22/5 44/23/5 42/24/5
f 46/21/6 47/24/6 48/23/6 45/22/6
f 44/23/1 43/22/1 45/22/1 48/23/1
f 41/21/2 42/24/2 47/24/2 46/21/2
f 42/24/3 44/23/3 48/23/3 47/24/3
f 43/22/4 41/21/4 46/21/4 45/22/4
f 49/25/5 51/26/5 52/27/5 50/28/5
f 54/25/6 55/28/6 56/27/6 53/26/6
f 52/27/1 51/26/1 53/26/1 56/27/1
f 49/25/2 50/28/2 55/28/2 54/25/2
f 50/28/3 52/27/3 56/27/3 55/28/3
f 51/26/4 49/25/4 54/25/4 53/26/4
f 57/29/5 59/30/5 60/31/5 58/32/5
f 62/29/6 63/32/6 64/31/6 61/30/6
f 60/31/1 59/30/1 61/30/1 64/31/1
f 57/29/2 58/32/2 63/32/2 62/29/2
f 58/32/3 60/31/3 64/31/3 63/32/3
f 59/30/4 57/29/4 62/29/4 61/30/4
f 65/33/3 67/34/3 68/35/3 66/36/3
f 70/33/4 71/36/4 72/35/4 69/34/4
f 68/35/1 67/34/1 69/34/1 72/35/1
f 65/33/2 66/36/2 71/36/2 70/33/2
f 66/36/6 68/35/6 72/35/6 71/36/6
f 67/34/5 65/33/5 70/33/5 69/34/5
f 73/37/3 75/38/3 76/39/3 74/40/3
f 78/37/4 79/40/4 80/39/4 77/38/4
f 76/39/1 75/38/1 77/38/1 80/39/1
f 73/37/2 74/40/2 79/40/2 78/37/2
f 74/40/6 76/39/6 80/39/6 79/40/6
f 75/38/5 73/37/5 78/37/5 77/38/5
f 118/41/5 114/42/5 84/43/5 90/44/5
f 98/45/4 94/46/4 88/47/4 91/48/4
f 117/49/6 116/50/6 86/51/6 92/52/6
f 101/53/3 100/54/3 82/55/3 89/56/3
f 120/57/1 115/58/1 85/59/1 95/60/1
f 122/61/7 114/62/7 82/63/7 100/64/7
f 103/65/3 101/53/3 89/56/3 81/66/3
f 115/58/6 117/49/6 92/52/6 85/59/6
f 93/67/4 98/45/4 91/48/4 87/68/4
f 113/69/5 118/41/5 90/44/5 83/70/5
f 98/45/5 93/67/5 107/67/5 106/45/5
f 85/59/3 92/52/3 97/71/3 95/72/3
f 116/50/8 119/73/8 96/74/8 86/51/8
f 121/75/1 120/57/1 95/60/1 103/76/1
f 92/52/3 86/51/3 96/77/3 97/71/3
f 104/78/4 102/79/4 94/46/4 98/45/4
f 90/44/4 84/43/4 102/79/4 104/78/4
f 113/80/1 121/75/1 103/76/1 81/81/1
f 83/70/4 90/44/4 104/78/4 99/82/4
f 103/76/2 95/60/2 110/60/2 109/76/2
f 119/73/9 122/61/9 100/64/9 96/74/9
f 97/71/3 96/77/3 100/54/3 101/53/3
f 108/82/4 105/78/4 106/45/4 107/67/4
f 99/82/6 104/78/6 105/78/6 108/82/6
f 104/78/1 98/45/1 106/45/1 105/78/1
f 93/83/2 99/84/2 108/84/2 107/83/2
f 110/72/3 111/71/3 112/53/3 109/65/3
f 95/72/5 97/71/5 111/71/5 110/72/5
f 97/71/1 101/53/1 112/53/1 111/71/1
f 101/53/6 103/65/6 109/65/6 112/53/6
f 94/85/2 102/86/2 122/61/2 119/73/2
f 83/87/1 99/84/1 121/75/1 113/80/1
f 99/84/1 93/83/1 120/57/1 121/75/1
f 88/47/10 94/85/10 119/73/10 116/50/10
f 81/88/5 89/89/5 118/41/5 113/69/5
f 87/68/6 91/48/6 117/49/6 115/58/6
f 102/86/11 84/90/11 114/62/11 122/61/11
f 93/83/1 87/68/1 115/58/1 120/57/1
f 91/48/6 88/47/6 116/50/6 117/49/6
f 89/89/5 82/91/5 114/42/5 118/41/5
f 123/92/2 125/93/2 126/94/2 124/95/2
f 128/92/1 129/95/1 130/94/1 127/93/1
f 126/94/4 125/93/4 127/93/4 130/94/4
f 123/92/3 124/95/3 129/95/3 128/92/3
f 124/95/5 126/94/5 130/94/5 129/95/5
f 125/93/6 123/92/6 128/92/6 127/93/6
f 145/96/5 143/97/5 134/98/5 133/99/5
f 133/99/6 134/98/6 151/100/6 152/101/6
f 141/102/6 142/103/6 136/104/6 135/105/6
f 161/106/3 162/107/3 132/108/3 131/109/3
f 164/110/1 141/102/1 135/105/1 161/106/1
f 163/111/2 140/112/2 132/108/2 162/107/2
f 142/103/5 146/113/5 155/114/5 156/115/5
f 165/116/1 144/117/1 141/102/1 164/110/1
f 141/102/2 144/117/2 150/118/2 149/119/2
f 131/109/5 132/108/5 140/112/5 139/120/5
f 137/121/6 138/122/6 146/113/6 144/117/6
f 159/123/1 137/121/1 144/117/1 165/116/1
f 160/124/2 134/98/2 143/97/2 166/125/2
f 139/120/5 140/112/5 143/97/5 145/96/5
f 144/117/3 146/113/3 147/126/3 150/118/3
f 142/103/4 141/102/4 149/119/4 148/127/4
f 167/128/4 168/129/4 154/130/4 153/131/4
f 138/122/5 137/121/5 153/131/5 154/130/5
f 159/123/2 133/99/2 152/101/2 167/128/2
f 160/124/1 138/122/1 154/130/1 168/129/1
f 170/132/12 158/133/12 157/134/12 169/135/12
f 166/125/3 143/97/3 158/133/3 170/132/3
f 143/97/2 140/112/2 157/134/2 158/133/2
f 163/111/4 142/103/4 156/115/4 169/135/4
f 140/112/4 163/111/4 169/135/4 157/134/4
f 146/113/3 166/125/3 170/132/3 155/114/3
f 155/114/2 170/132/2 169/135/2 156/115/2
f 134/98/1 160/124/1 168/129/1 151/100/1
f 137/121/2 159/123/2 167/128/2 153/131/2
f 152/101/4 151/100/4 168/129/4 167/128/4
f 138/122/2 160/124/2 166/125/2 146/113/2
f 133/99/1 159/123/1 165/116/1 145/96/1
f 145/96/1 165/116/1 164/110/1 139/120/1
f 142/103/2 163/111/2 162/107/2 136/104/2
f 139/120/1 164/110/1 161/106/1 131/109/1
f 135/105/3 136/104/3 162/107/3 161/106/3
f 185/136/4 183/137/4 174/138/4 173/139/4
f 173/139/3 174/138/3 191/140/3 192/141/3
f 181/142/3 182/143/3 176/144/3 175/145/3
f 201/146/5 202/147/5 172/148/5 171/149/5
f 204/150/1 181/142/1 175/145/1 201/146/1
f 203/151/2 180/152/2 172/148/2 202/147/2
f 182/143/4 186/153/4 195/154/4 196/155/4
f 205/156/1 184/157/1 181/142/1 204/150/1
f 181/142/2 184/157/2 190/158/2 189/159/2
f 171/149/4 172/148/4 180/152/4 179/160/4
f 177/161/3 178/162/3 186/153/3 184/157/3
f 199/163/1 177/161/1 184/157/1 205/156/1
f 200/164/2 174/138/2 183/137/2 206/165/2
f 179/160/4 180/152/4 183/137/4 185/136/4
f 184/157/5 186/153/5 187/166/5 190/158/5
f 182/143/6 181/142/6 189/159/6 188/167/6
f 207/168/6 208/169/6 194/170/6 193/171/6
f 178/162/4 177/161/4 193/171/4 194/170/4
f 199/163/2 173/139/2 192/141/2 207/168/2
f 200/164/1 178/162/1 194/170/1 208/169/1
f 210/172/13 198/173/13 197/174/13 209/175/13
f 206/165/5 183/137/5 198/173/5 210/172/5
f 183/137/2 180/152/2 197/174/2 198/173/2
f 203/151/6 182/143/6 196/155/6 209/175/6
f 180/152/6 203/151/6 209/175/6 197/174/6
f 186/153/5 206/165/5 210/172/5 195/154/5
f 195/154/2 210/172/2 209/175/2 196/155/2
f 174/138/1 200/164/1 208/169/1 191/140/1
f 177/161/2 199/163/2 207/168/2 193/171/2
f 192/141/6 191/140/6 208/169/6 207/168/6
f 178/162/2 200/164/2 206/165/2 186/153/2
f 173/139/1 199/163/1 205/156/1 185/136/1
f 185/136/1 205/156/1 204/150/1 179/160/1
f 182/143/2 203/151/2 202/147/2 176/144/2
f 179/160/1 204/150/1 201/146/1 171/149/1
f 175/145/5 176/144/5 202/147/5 201/146/5
f 225/176/4 223/177/4 214/178/4 213/179/4
f 213/179/3 214/178/3 231/180/3 232/181/3
f 221/182/3 222/183/3 216/184/3 215/185/3
f 241/186/5 242/187/5 212/188/5 211/189/5
f 244/190/1 221/182/1 215/185/1 241/186/1
f 243/191/2 220/192/2 212/188/2 242/187/2
f 222/183/4 226/193/4 235/194/4 236/195/4
f 245/196/1 224/197/1 221/182/1 244/190/1
f 221/182/2 224/197/2 230/198/2 229/199/2
f 211/189/4 212/188/4 220/192/4 219/200/4
f 217/201/3 218/202/3 226/193/3 224/197/3
f 239/203/1 217/201/1 224/197/1 245/196/1
f 240/204/2 214/178/2 223/177/2 246/205/2
f 219/200/4 220/192/4 223/177/4 225/176/4
f 224/197/5 226/193/5 227/206/5 230/198/5
f 222/183/6 221/182/6 229/199/6 228/207/6
f 247/208/6 248/209/6 234/210/6 233/211/6
f 218/202/4 217/201/4 233/211/4 234/210/4
f 239/203/2 213/179/2 232/181/2 247/208/2
f 240/204/1 218/202/1 234/210/1 248/209/1
f 250/212/13 238/213/13 237/214/13 249/215/13
f 246/205/5 223/177/5 238/213/5 250/212/5
f 223/177/2 220/192/2 237/214/2 238/213/2
f 243/191/6 222/183/6 236/195/6 249/215/6
f 220/192/6 243/191/6 249/215/6 237/214/6
f 226/193/5 246/205/5 250/212/5 235/194/5
f 235/194/2 250/212/2 249/215/2 236/195/2
f 214/178/1 240/204/1 248/209/1 231/180/1
f 217/201/2 239/203/2 247/208/2 233/211/2
f 232/181/6 231/180/6 248/209/6 247/208/6
f 218/202/2 240/204/2 246/205/2 226/193/2
f 213/179/1 239/203/1 245/196/1 225/176/1
f 225/176/1 245/196/1 244/190/1 219/200/1
f 222/183/2 243/191/2 242/187/2 216/184/2
f 219/200/1 244/190/1 241/186/1 211/189/1
f 215/185/5 216/184/5 242/187/5 241/186/5
