# PCF Mesh Export
# vertexCount=18  triCount=16
# materialID=54c669ba

v 436.166009 0 123.561117
v 436.166009 0 254.552002
v -99.998354 0 123.561117
v -99.998354 0 252.334353
v -99.998354 0 18.407601
v 436.166009 0 18.407601
v -99.998354 0 -84.114658
v 436.166009 0 -76.766496
v -99.998354 0 -175.00306
v 436.166009 0 -175.00306
v -99.998354 0 -322.168701
v 436.166009 0 -322.168701
v 451.772217 0 123.561117
v 451.772217 0 18.407601
v 451.772217 0 -76.766496
v 451.772217 0 -175.00306
v -114.222717 0 -175.00306
v -114.222717 0 -84.114658

vn 0 1 0
vn 0 1 0
vn 0 1 0
vn 0 1 0
vn 0 1 0
vn 0 1 0
vn 0 1 0
vn 0 1 0
vn 0 1 0
vn 0 1 0
vn 0 1 0
vn 0 1 0
vn 0 1 0
vn 0 1 0
vn 0 1 0
vn 0 1 0
vn 0 1 0
vn 0 1 0

vt 0.422864 0.027277
vt 0.422864 0.000865
vt 0.333212 0.027277
vt 0.333212 0.001258
vt 0.333212 0.043333
vt 0.422864 0.043333
vt 0.333212 0.068103
vt 0.422864 0.066798
vt 0.333212 0.084388
vt 0.422864 0.084388
vt 0.333212 0.108998
vt 0.422864 0.108998
vt 0.425475 0.027277
vt 0.425475 0.043333
vt 0.425475 0.066798
vt 0.425475 0.084388
vt 0.330835 0.084388
vt 0.330835 0.068103

f 1/1/1 3/3/3 2/2/2
f 2/2/2 3/3/3 4/4/4
f 1/1/1 5/5/5 3/3/3
f 6/6/6 5/5/5 1/1/1
f 6/6/6 7/7/7 5/5/5
f 8/8/8 7/7/7 6/6/6
f 8/8/8 9/9/9 7/7/7
f 10/10/10 9/9/9 8/8/8
f 10/10/10 11/11/11 9/9/9
f 12/12/12 11/11/11 10/10/10
f 13/13/13 6/6/6 1/1/1
f 14/14/14 6/6/6 13/13/13
f 15/15/15 10/10/10 8/8/8
f 16/16/16 10/10/10 15/15/15
f 17/17/17 7/7/7 9/9/9
f 18/18/18 7/7/7 17/17/17
